<?xml version="1.0" encoding="utf-8"?>
<!-- Generator: Adobe Illustrator 21.1.0, SVG Export Plug-In . SVG Version: 6.00 Build 0)  -->
<svg version="1.1" id="Capa_1" xmlns="http://www.w3.org/2000/svg" xmlns:xlink="http://www.w3.org/1999/xlink" x="0px" y="0px"
	 viewBox="0 0 1417 1417" style="enable-background:new 0 0 1417 1417;" xml:space="preserve">
<style type="text/css">
	.st0{fill:none;stroke:#FFFFFF;stroke-width:40;stroke-miterlimit:10;}
	.st1{fill:#FFFFFF;stroke:#FFFFFF;stroke-miterlimit:10;}
	.st2{fill:#FFFFFF;stroke:#000000;stroke-miterlimit:10;}
	.st3{fill:none;stroke:#000000;stroke-miterlimit:10;}
	.st4{fill:#FFFFFF;}
	.st5{fill:none;stroke:#FFFFFF;stroke-width:16;stroke-miterlimit:10;}
	.st6{fill:none;stroke:#FFFFFF;stroke-width:20;stroke-miterlimit:10;}
</style>
<path class="st0" d="M1085.6,1387.7H331.4c-165.1,0-300.2-135.1-300.2-300.2V333.2C31.2,168.1,166.2,33,331.4,33h754.3
	c165.1,0,300.2,135.1,300.2,300.2v754.3C1385.8,1252.6,1250.8,1387.7,1085.6,1387.7z"/>
<g>
	<path class="st1" d="M743,727.2c5.2,0,10.3,0.1,15.5,0c8.8-0.2,17.6-0.5,26.4-1.2c6.3-0.5,12.6-1.2,18.8-2.6
		c3.7-0.8,7.2-2,10.1-4.5c4.9-4.2,7.4-9.5,7.2-16c-0.1-3.9-1.3-7.6-2.6-11.3c-3.4-9.8-8.2-18.9-13.3-27.9c-4.6-8.1-9.7-16-15.6-23.3
		c-1.7-2.1-3.6-4-6.2-5.1c-2.3-0.9-4.7-1-7.2-0.9c-8.3,0.6-16.3,2.6-24.3,4.8c-14.3,4.1-28.5,8.7-42.4,13.9
		c-1.2,0.4-2.3,0.9-3.4,1.5c-4.1,2.2-6.1,6.7-4.6,11.1c2.2,6.1,6.5,10,12.8,11.6c1.9,0.5,4,0.2,6,0.1c8.9-0.7,17.2-3.5,25.2-7.4
		c0.8-0.4,1.5-0.8,2.3-1c2.7-0.6,5.4,0.9,6.2,3.5c0.9,2.7-0.3,5.5-3,6.7c-4.6,2.1-9.4,3.6-14.2,4.8c-6.7,1.6-13.5,2.5-20.3,3
		c-6.2,0.4-11.3-1.8-15.9-5.7c-3.7-3.2-6.8-6.9-8.5-11.5c-0.7-1.9-1.2-3.8-1-5.9c0.3-2.4,1.8-4.1,3.5-5.6c3.4-3,7.2-5.2,11.3-7.1
		c9-4.4,18.6-7.4,28.2-10c10.1-2.7,20.3-5.3,30.5-7.3c5.1-1,10.3-1.9,15.5-2.3c5.6-0.4,10.3,1.4,14.2,5.3c5,5.1,9.4,10.7,13.4,16.6
		c6.8,9.9,12.9,20.3,17.8,31.3c2.6,5.9,4.7,11.9,5.8,18.2c1.4,8.2-0.7,15.4-6.3,21.6c-4.1,4.6-9.4,7-15.4,8
		c-8.3,1.4-16.7,2.5-25.1,3.1c-7,0.5-14.1,1-21.1,1.4c-5.1,0.3-10.2,0.4-15.4,0.5c-6.9,0.1-13.8,0.2-20.8,0
		c-8.5-0.2-16.9-0.4-25.4-0.8c-6.4-0.3-12.8-0.7-19.1-1.2c-13.6-1.2-27.1-3-40.4-6.2c-6.6-1.6-13.1-3.6-19.2-6.6
		c-2.2-1.1-4.3-2.3-6.2-3.7c-4.7-3.5-5.9-9.5-3.1-14.7c2.1-3.8,4.9-7,7.9-10.2c6.8-7.3,14.4-13.6,22.3-19.6
		c15.9-12,32.4-23.1,49-34.1c0.5-0.3,1.2-0.5,1.8-0.5c1,0,1.7,0.8,1.9,1.7c0.2,1-0.2,1.8-1.2,2.5c-9.2,5.9-18.2,12-27,18.5
		c-10.3,7.5-20.4,15.4-29.8,24c-4.3,4-8.5,8.1-12,12.9c-1.1,1.5-2.1,3-2.8,4.6c-1.3,2.6-0.4,5.2,2.1,6.6c2.4,1.3,4.9,2.4,7.5,3.4
		c7.1,2.7,14.6,4.6,22,6.1c7.6,1.6,15.2,2.7,22.8,3.6c9.3,1.1,18.7,1.9,28,2.4c4.9,0.2,9.8,0.5,14.7,0.6c7.3,0.2,14.7,0.3,22,0.5
		C743,727.3,743,727.2,743,727.2z"/>
	<path class="st1" d="M699.7,709.3c6.2-0.1,12.4-0.2,18.6-0.3c3.6-0.1,7.2-0.2,10.7-0.4c11.9-0.6,23.8-1.8,35.4-4.8
		c4.9-1.2,9.6-2.8,13.9-5.4c3.8-2.3,6.2-5.5,6.9-10c0.5-3.6,1-7.2,1-10.8c0.1-4.4-0.3-8.7-1.5-13c-1.2-3.9-2.9-7.5-5.2-10.8
		c-1.2-1.7-2.8-2.6-4.8-2.7c-3.9-0.1-7.8-0.3-11.7-0.2c-11.8,0.5-23.5,2.1-35,5.1c-2.3,0.6-4.6,1.2-6.6,2.5
		c-4.1,2.7-6.3,6.4-6.7,11.3c-0.1,0.8,0.3,1.7,0.5,2.5c0.3,1.1,0.1,1.9-0.6,2.3c-0.8,0.4-1.6,0.1-2.2-0.8c-0.9-1.4-1.3-3.1-1.6-4.8
		c-0.6-3.6-0.8-7.2-0.1-10.8c0.6-3.1,2.5-5.3,5.5-6.2c4.3-1.2,8.6-2.3,13-3.3c5.6-1.2,11.3-2.3,17-3.2c4-0.6,8-1,12.1-1.3
		c5.9-0.3,11.7-0.5,17.6-0.5c7.6-0.1,13.3,3.8,16.1,10.8c2.4,5.9,4,12.1,4.9,18.4c1,7.1-0.4,13.7-3.3,20.1c-1.1,2.5-2.3,4.8-4.2,6.8
		c-2.3,2.4-5.2,3.8-8.2,4.9c-5.9,2.2-12,3.7-18.2,4.7c-6.6,1-13.1,2-19.7,2.7c-5.5,0.6-11.1,0.9-16.7,1.2
		c-5.2,0.3-10.4,0.4-15.7,0.5c-4.1,0.1-8.1,0.1-12.2,0.1c-9.3-0.1-18.5-0.4-27.7-1.5c-5.4-0.6-10.9-1.4-16.1-3.1
		c-4-1.3-7.1-3.8-8.6-7.9c-1-2.7-0.8-5.4,0-8.1c1.4-4.6,3.4-8.9,6-12.9c2.3-3.5,4.7-6.9,7.2-10.3c1.1-1.6,2.8-2.2,4.7-1.9
		c2,0.3,3.3,1.5,3.8,3.4c0.5,1.6,0.1,3.1-0.8,4.5c-1.9,2.9-3.7,5.9-5.5,8.9c-2.3,3.9-3.5,8.2-4.1,12.6c-0.5,3.6,1.7,7.2,5.3,8.2
		c3,0.8,6.1,1.4,9.1,1.8c6.2,0.8,12.5,1.2,18.8,1.3c3,0.1,6,0,9,0C699.7,709.1,699.7,709.2,699.7,709.3z"/>
</g>
<path class="st2" d="M490.2,1027.2c-0.1,7.2-6,12.9-13.2,12.9c-7.4,0-13.3-6.1-13.1-13.5c0.2-7.2,6.1-12.8,13.4-12.6
	C484.6,1014.1,490.3,1020,490.2,1027.2z"/>
<path class="st2" d="M868.6,1040.1c-7.2,0.1-13.1-5.7-13.2-12.9c-0.1-7.4,5.8-13.3,13.3-13.3c7.3,0.1,13,5.8,13,13.1
	C881.6,1034.3,875.9,1040,868.6,1040.1z"/>
<path class="st3" d="M868.2,1050.7c13.6,0.2,24.5-10.4,24.5-24c0.1-13.6-10.6-24.4-24.1-24.4c-13.6,0-24.4,10.7-24.4,24.2
	C844.3,1039.9,854.9,1050.6,868.2,1050.7z"/>
<path class="st3" d="M452.8,1026.5c-0.1,13.5,10.7,24.2,24.3,24.2c13.6,0,24.2-10.8,24.2-24.3c-0.1-13.5-11-24.2-24.5-24
	C463.4,1002.6,452.9,1013.1,452.8,1026.5z"/>
<path class="st4" d="M935.3,554c-76.4-1.9-152.8-3.8-229.1-5.7c-87.9-2.2-175.7-4.4-263.6-6.5c-3.8-0.1-5.5-1.2-6.9-4.8
	c-16.1-41.6-32.4-83.1-48.5-124.7c-3.2-8.4-8.9-13.2-17.7-14.7c-36.1-6.1-72.3-12.4-108.4-18.5c-2.6-0.4-5.5-0.4-8,0.2
	c-9.9,2.2-16.5,10.7-16.3,20.3c0.3,9.6,7.1,17.8,17.2,19.6c31.2,5.5,62.5,10.8,93.8,16c3.8,0.6,5.6,2.1,7,5.7
	c46.3,118.9,92.8,237.7,139.2,356.6c4.9,12.6,9.8,25.2,14.7,37.8c-15.9,12.4-31.4,24.6-47,36.9c-11,8.7-20.9,18.3-27,31.2
	c-10.4,22.2-10.4,43.3,6,63c7.4,8.9,16.5,15.3,27.7,19.8c-2,0.7-3.3,1.2-4.6,1.7c-17.4,6.5-27.9,22.5-27.1,41.4
	c0.7,17.3,13.2,32.5,30.6,37.4c1.3,0.4,2.6,0.9,3.9,1.4c4.1,0,8.3,0,12.4,0c2.6-0.8,5.2-1.5,7.7-2.4c29.8-10.5,37.2-49.2,13.4-69.9
	c-1.7-1.4-3.4-2.8-5.5-4.3c115.7,0,231,0,346.2,0c0.3,0.6,0.7,1.1,1,1.7c-0.8,0.3-1.8,0.5-2.5,1.1c-13,10.6-18.4,24.4-15.1,40.8
	c3.4,16.8,14.3,27.3,30.8,32c1,0.3,2,0.7,3,1.1c4.1,0,8.3,0,12.4,0c1.2-0.4,2.4-0.8,3.6-1.1c16.1-4.5,26.8-14.7,30.6-31
	c3.8-16.4-1.6-30.1-14.2-41.1c-0.7-0.6-1.5-1.2-2.2-1.8c-0.1-0.1,0-0.3,0-1c6.9,0,13.9,0,20.8,0c4,0,8,0.1,11.9-0.4
	c10.1-1.4,17.9-10.8,17.4-20.8c-0.5-10.1-8.8-18.7-18.9-19.5c-1.4-0.1-2.9-0.1-4.3-0.1c-139.6-0.4-279.1-0.8-418.7-1.2
	c-6,0-12.2,0-18.1-0.8c-10.8-1.6-16.2-9.7-14.1-20.4c1.7-8.7,6.5-15.5,13.3-20.9c23.2-18.3,46.3-36.5,69.6-54.6
	c1.7-1.4,4.2-2.2,6.5-2.4c59.3-4.8,118.6-9.6,177.8-14.3c50.2-4,100.5-7.9,150.7-11.9c7.6-0.6,15.3-1.2,22.9-1.9
	c10.6-1,17.9-8,19.2-18.6c5.8-47.5,11.5-94.9,17.2-142.4c3.2-26.4,6.4-52.9,9.6-79.3c0.1-0.9,0.5-1.8,0.8-2.7c0-3.2,0-6.4,0-9.6
	C952.8,560.3,946.4,554.2,935.3,554z M869.3,1002.4c13.5,0,24.2,10.8,24.1,24.4c-0.1,13.5-10.9,24.1-24.5,24
	c-13.3-0.2-24-10.8-24-24.1C845,1013.1,855.8,1002.4,869.3,1002.4z M477.5,1002.4c13.5-0.2,24.4,10.5,24.5,24
	c0.1,13.6-10.6,24.3-24.2,24.3s-24.4-10.7-24.3-24.2C453.6,1013.1,464.1,1002.6,477.5,1002.4z M533.6,575.1
	c22.7,0.6,45.4,1.1,68.4,1.7c0,23.2,0,46.2,0,69.7c-22.9,0-45.5,0-68.4,0C533.6,622.9,533.6,599.4,533.6,575.1z M518.5,725.2
	c-4.6,1.5-6.8-0.1-8.4-4.4c-6.9-18.3-14.2-36.5-21.3-54.7c-0.6-1.4-1-2.9-1.6-4.8c10.6,0,20.7,0,31.3,0
	C518.5,682.5,518.5,703.7,518.5,725.2z M518.6,646.7c-8,0-15.9,0.1-23.8,0c-4.4,0-9.8,1.2-13-0.9c-3-1.9-3.6-7.4-5.2-11.4
	c-7.4-18.8-14.7-37.7-22-56.5c-0.6-1.4-1-2.9-1.7-4.9c22.2,0.6,43.8,1.2,65.7,1.7C518.6,598.8,518.6,622.4,518.6,646.7z
	 M602.1,807.3c-18.5,1.5-37,3.1-56.2,4.7c-4.6-15.1-14.6-29.1-12.8-46.7c0.8-8.2,0.1-16.5,0.1-25.2c23.4,0,46,0,68.8,0
	C602.1,762.5,602.1,784.6,602.1,807.3z M901.2,783.6c-11.2,0.9-22.3,1.8-34,2.8c0-15.6,0-30.7,0-46.2c13,0,25.8,0,39.2,0
	C904.6,754.7,903,768.9,901.2,783.6z M913.2,684.3c-1.5,12.5-3,25-4.7,37.4c-0.2,1.4-1.8,3.8-2.8,3.8c-12.7,0.3-25.4,0.2-38.6,0.2
	c0-2.9,0-5.9,0-8.8c-5.6,8.5-13.9,16.4-24.3,23.3c3.1,0,6.2,0,9.4,0c0,15.6,0,31.1,0,47.3c-22.8,1.8-45.5,3.6-68.6,5.5
	c0-9.8,0-19.4,0-29.1c-4.8,1-9.8,2-14.8,2.7c0,9.1,0,18.3,0,27.6c-22.8,1.8-45.5,3.6-68.5,5.4c0-10.6,0-21.1,0-31.6
	c-5.1-0.5-10.1-1.2-15-2.1c0,11.5,0,23.1,0,34.8c-22.7,1.8-45.4,3.6-68.6,5.5c0-22,0-43.4,0-65.1c-7.4-4.8-13.8-10.1-19-15.7
	c-21.3,0-42.7,0-64.3,0c0-21.3,0-42.5,0-64c19.6,0,39.3,0,59.2,0c5.8-8.1,14-15.5,24.1-22c0-20.7,0-41.2,0-62.2
	c22.9,0.6,45.6,1.1,68.6,1.7c0,12,0,23.8,0,35.6c4.9-0.8,9.8-1.5,14.9-2.1c0-10.9,0-21.9,0-33.1c22.7,0.5,45.4,1.1,68.4,1.6
	c0,11,0,22,0,32.9c5.1,0.8,10.1,1.7,15,2.8c0-11.6,0-23.3,0-35.3c23,0.6,45.7,1.1,68.6,1.7c0,21.4,0,42.2,0,63.3c-0.4,0-0.8,0-1.1,0
	c6.5,5.3,11.9,11.1,15.9,17.2c0-0.8,0-1.5,0-2.3c16.1,0,32,0,48.6,0C915,669,914.1,676.6,913.2,684.3z M917.8,646.4
	c-16.9,0-33.6,0-50.5,0c0-20.9,0-41.7,0-63c19.3,0.5,38.4,1,57.9,1.5C922.7,605.7,920.2,625.9,917.8,646.4z"/>
<ellipse class="st5" cx="728.7" cy="690.1" rx="146.5" ry="79.3"/>
<g>
	<g>
		<path class="st4" d="M1095,328.2c-12.6,23-25.2,45.9-37.8,68.9c-20.1,36.6-40.2,73.2-60.2,109.8c-4.6,8.4-9.2,16.9-13.9,25.3
			c11.8-1.5,23.6-3,35.3-4.6c-21.2-25.3-42.5-50.6-63.7-75.8c-3-3.6-6-7.2-9.1-10.8c-7.6-9-24.1-8.4-31.8,0
			c-8.8,9.6-8.1,22.2,0,31.8c21.2,25.3,42.5,50.6,63.7,75.8c3,3.6,6,7.2,9.1,10.8c9.3,11,28.8,7.3,35.3-4.6
			c12.6-23,25.2-45.9,37.8-68.9c20.1-36.6,40.2-73.2,60.2-109.8c4.6-8.4,9.2-16.9,13.9-25.3c5.7-10.3,2.9-25-8.1-30.8
			C1115.2,314.6,1101,317.2,1095,328.2L1095,328.2z"/>
	</g>
</g>
<path class="st6" d="M970.1,645.6c15.2,3.6,31.1,5.5,47.5,5.5c113.1,0,204.7-91.7,204.7-204.7s-91.7-204.7-204.7-204.7
	c-113.1,0-204.7,91.7-204.7,204.7c0,30.8,6.8,60,19,86.2"/>
</svg>
