<?xml version="1.0" encoding="utf-8"?>
<!-- Generator: Adobe Illustrator 21.0.0, SVG Export Plug-In . SVG Version: 6.00 Build 0)  -->
<svg version="1.1" id="Capa_1" xmlns="http://www.w3.org/2000/svg" xmlns:xlink="http://www.w3.org/1999/xlink" x="0px" y="0px"
	 viewBox="0 0 360 323" style="enable-background:new 0 0 360 323;" xml:space="preserve">
<style type="text/css">
	.st0{opacity:0.21;}
	.st1{fill:#363070;}
</style>
<g id="Capa_3" class="st0">
	<path class="st1" d="M261,263.5c-23.4,21.3-55.7,33.2-89.3,33.2c-74.9,0-135.3-60-135.3-135.3S96.8,26.6,171.7,26.6
		c31.9,0,61.2,11.1,85.1,28.9c-19.6-11.1-41.7-18.3-65.5-18.3C122.7,37.2,67.4,92.9,67.4,161s55.7,124.2,124.2,124.2
		C216.3,285.6,241.4,277.5,261,263.5z"/>
	<path class="st1" d="M279.3,98c12.8,17.6,20.4,39.3,20.4,63c0,58.7-47.2,107.6-107.2,107.6c-26.3,0-51.4-9.4-71-26.4
		c17,11.5,36.1,18.3,56.9,17.5c54.5,0,98.7-44.7,98.7-99.1c0-15.9-3.8-30.9-10.5-44.3c-30.3,44.3-56.1,89.1-76.6,134.4
		c0,0-22.5-54.4-68.5-94.9l22.5-43c0,0,30.6,28.9,48.9,55.7c0,0,20.2-33.6,56.7-76.3C231.4,73.3,206,61.5,178,61.5
		c-20,0-37.8,5.5-53.1,15.3c18.3-14.9,42.5-23.4,67.2-23.4c26.2,0,50.5,9.5,69.3,25.4C300.8,36.4,351.2,6.2,352,5.7
		C325.8,36.1,301.5,66.9,279.3,98z"/>
</g>
</svg>
