<?xml version="1.0" encoding="utf-8"?>
<!-- Generator: Adobe Illustrator 21.0.0, SVG Export Plug-In . SVG Version: 6.00 Build 0)  -->
<svg version="1.1" id="Capa_1" xmlns="http://www.w3.org/2000/svg" xmlns:xlink="http://www.w3.org/1999/xlink" x="0px" y="0px"
	 viewBox="0 0 76.4 70.4" style="enable-background:new 0 0 76.4 70.4;" xml:space="preserve">
<style type="text/css">
	.st0{fill:#49A947;}
	.st1{fill:#002C47;}
	.st2{fill:#F26E01;}
	.st3{display:none;}
</style>
<g id="Capa_3">
	<path class="st0" d="M54.4,62.4c-5.7,5.1-13.5,8-21.6,8C14.6,70.4,0,55.9,0,37.7S14.6,5,32.7,5c7.7,0,14.8,2.7,20.6,7
		c-4.7-2.7-10.1-4.4-15.9-4.4c-16.6,0-30,13.5-30,30S21,67.6,37.6,67.6C43.6,67.8,49.6,65.8,54.4,62.4z"/>
	<path class="st1" d="M20.6,57.2c4.7,4.1,10.8,6.4,17.2,6.4c14.5,0,25.9-11.8,25.9-26.1c0-14.5-11.8-26.1-26.1-26.1
		c-6,0-11.8,2.1-16.3,5.7c3.7-2.4,8-3.7,12.9-3.7c13.2,0,24,10.8,24,24s-10.7,24-23.9,24C29.3,61.7,24.7,60,20.6,57.2z"/>
	<path class="st2" d="M37.2,59.3c0,0-5.5-13.2-16.6-23l5.5-10.4c0,0,7.4,7,11.8,13.5c0,0,5.5-9.1,15.2-20.2S76.4,0,76.4,0
		C59.8,19.3,46.3,39.1,37.2,59.3z"/>
</g>
<g id="Capa_2" class="st3">
	
		<image style="display:inline;overflow:visible;opacity:0.58;enable-background:new    ;" width="502" height="540" xlink:href="../../../../../Users/JOHN/Pictures/Screenshot_20171117-112810.png"  transform="matrix(6.157408e-02 0 0 6.157408e-02 -5.9109 24.4723)">
	</image>
	
		<image style="display:inline;overflow:visible;enable-background:new    ;" width="502" height="540" xlink:href="../../../../../Users/JOHN/Pictures/Screenshot_20171117-112810.png"  transform="matrix(4.704515e-02 0 0 4.704515e-02 -25.4507 13.0756)">
	</image>
</g>
</svg>
