<?xml version="1.0" encoding="utf-8"?>
<!-- Generator: Adobe Illustrator 21.0.0, SVG Export Plug-In . SVG Version: 6.00 Build 0)  -->
<svg version="1.1" id="Capa_1" xmlns="http://www.w3.org/2000/svg" xmlns:xlink="http://www.w3.org/1999/xlink" x="0px" y="0px"
	 viewBox="0 0 649.4 338" style="enable-background:new 0 0 649.4 338;" xml:space="preserve">
<style type="text/css">
	.st0{fill:#363070;}
	.st1{fill:none;}
	.st2{font-family:'ArialMT';}
	.st3{font-size:34px;}
</style>
<g id="Capa_2">
	<polygon class="st0" points="363.7,66 363.7,103 415.8,103 415.8,134 363.7,134 363.7,172 423.7,172 423.7,209 326.7,209 326.7,29 
		423.7,29 423.7,66 	"/>
	<polygon class="st0" points="593.7,29 593.7,209 556.7,209 492.7,102.6 492.7,209 455.7,209 455.7,29 492.7,29 556.7,135 556.7,29 
			"/>
	<polygon class="st0" points="294.7,29 294.7,209 257.7,209 257.7,66 220.7,66 257.7,29 	"/>
	<path class="st0" d="M145.7,172c-29.3,0-53-23.7-53-53s23.7-53,53-53c14.8,0,28.1,6,37.8,15.8l26.2-26.2
		c-16.4-16.4-39-26.6-64-26.6c-49.7,0-90,40.3-90,90s40.3,90,90,90c24.7,0,47.2-10,63.4-26.1l-26.2-26.2
		C173.4,166.2,160.2,172,145.7,172z"/>
	<rect x="26.7" y="264" class="st1" width="597" height="25"/>
	<text transform="matrix(0.9198 0 0 1 55.7214 289)" class="st0 st2 st3">Centro Impulsor de Estudios de Nivelación</text>
	<text transform="matrix(0.9198 0 0 1 180.3845 338)" class="st0 st2 st3">4028383 - 76989899</text>
	<rect x="55.7" y="229" class="st0" width="538" height="15"/>
</g>
</svg>
