<?xml version="1.0" encoding="utf-8"?>
<!-- Generator: Adobe Illustrator 21.1.0, SVG Export Plug-In . SVG Version: 6.00 Build 0)  -->
<svg version="1.1" id="Capa_1" xmlns="http://www.w3.org/2000/svg" xmlns:xlink="http://www.w3.org/1999/xlink" x="0px" y="0px"
	 viewBox="0 0 146.5 146.5" style="enable-background:new 0 0 146.5 146.5;" xml:space="preserve">
<style type="text/css">
	.st0{fill:#FFFFFF;}
</style>
<path class="st0" d="M146.5,0H0v146.5h146.5V0z M118.1,100.1c4.9,4.9,4.9,13.1,0,18.2c-2.5,2.5-5.7,3.7-9.1,3.7s-6.5-1.3-9.1-3.7
	L73.2,91.3l-26.8,26.9c-4.9,4.9-13.1,4.9-18.2,0c-2.4-2.5-3.7-5.9-3.7-9.1c0-3.3,1.3-6.5,3.7-9.1L55,73.3L28.3,46.5
	c-4.9-4.9-4.9-13.1,0-18.2c2.5-2.4,5.9-3.7,9.1-3.7c3.3,0,6.5,1.3,9.1,3.7l26.8,26.8L100,28.4c4.9-4.9,13.1-4.9,18.2,0
	c2.5,2.5,3.7,5.7,3.7,9.1s-1.3,6.5-3.7,9.1L91.2,73.3L118.1,100.1z"/>
</svg>
