<?xml version="1.0" encoding="utf-8"?>
<!-- Generator: Adobe Illustrator 21.0.0, SVG Export Plug-In . SVG Version: 6.00 Build 0)  -->
<svg version="1.1" id="Capa_1" xmlns="http://www.w3.org/2000/svg" xmlns:xlink="http://www.w3.org/1999/xlink" x="0px" y="0px"
	 viewBox="0 0 430.1 430.1" style="enable-background:new 0 0 430.1 430.1;" xml:space="preserve">
<style type="text/css">
	.st0{fill:#FFFFFF;}
	.st1{fill:#3B5A9A;}
</style>
<path class="st0" d="M338,430.1h-246c-50.8,0-92.1-41.2-92.1-92v-246C0,41.2,41.2,0,92.1,0h246c50.8,0,92.1,41.2,92.1,92.1v246
	C430.1,388.9,388.9,430.1,338,430.1z"/>
<path class="st1" d="M401.2,96.9v236.3c0,37.6-30.5,67.9-67.9,67.9h-50.7v-153h42.6c0,0,4-24.7,5.9-51.7c-5.5,0-48.2,0-48.2,0
	s0-29.9,0-35.2s6.9-12.4,13.8-12.4H331V95.2h-47c-66.5,0-64.9,51.6-64.9,59.3s0,42.2,0,42.2h-30.9v51.5h30.9v153H96.9
	c-37.6,0-68-30.5-68-67.9V96.9c0-37.6,30.5-68,68-68h236.3C370.7,28.9,401.2,59.4,401.2,96.9z"/>
</svg>
