<?xml version="1.0" encoding="utf-8"?>
<!-- Generator: Adobe Illustrator 21.1.0, SVG Export Plug-In . SVG Version: 6.00 Build 0)  -->
<svg version="1.1" id="Capa_1" xmlns="http://www.w3.org/2000/svg" xmlns:xlink="http://www.w3.org/1999/xlink" x="0px" y="0px"
	 viewBox="0 0 430.1 430.1" style="enable-background:new 0 0 430.1 430.1;" xml:space="preserve">
<style type="text/css">
	.st0{fill:#FFFFFF;}
</style>
<path class="st0" d="M430.1,78.6v273c0,43.4-35.2,78.5-78.5,78.5h-58.6V253.3h49.2c0,0,4.6-28.5,6.8-59.7c-6.4,0-55.7,0-55.7,0
	s0-34.6,0-40.7c0-6.1,8-14.3,15.9-14.3H349v-62h-54.3c-76.8,0-75,59.6-75,68.5c0,8.9,0,48.7,0,48.7h-35.7v59.5h35.7v176.8H78.6
	C35.2,430.1,0,394.9,0,351.6v-273C0,35.2,35.2,0,78.6,0h273C394.9,0,430.1,35.2,430.1,78.6z"/>
</svg>
