<?xml version="1.0" encoding="utf-8"?>
<!-- Generator: Adobe Illustrator 21.1.0, SVG Export Plug-In . SVG Version: 6.00 Build 0)  -->
<svg version="1.1" id="Capa_1" xmlns="http://www.w3.org/2000/svg" xmlns:xlink="http://www.w3.org/1999/xlink" x="0px" y="0px"
	 viewBox="0 0 100 100" style="enable-background:new 0 0 100 100;" xml:space="preserve">
<style type="text/css">
	.st0{fill:#FFFFFF;}
</style>
<path class="st0" d="M91.3,58.7H8.7C3.9,58.7,0,54.8,0,50v0c0-4.8,3.9-8.7,8.7-8.7h82.6c4.8,0,8.7,3.9,8.7,8.7v0
	C100,54.8,96.1,58.7,91.3,58.7z"/>
<path class="st0" d="M85.1,56.2L50.4,21.5C47,18,47,12.5,50.4,9.1l0,0c3.4-3.4,8.9-3.4,12.3,0l34.7,34.7c3.4,3.4,3.4,8.9,0,12.3l0,0
	C94,59.6,88.5,59.6,85.1,56.2z"/>
<path class="st0" d="M97.4,56.2L62.7,90.9c-3.4,3.4-8.9,3.4-12.3,0l0,0c-3.4-3.4-3.4-8.9,0-12.3l34.7-34.7c3.4-3.4,8.9-3.4,12.3,0
	l0,0C100.9,47.2,100.9,52.8,97.4,56.2z"/>
</svg>
