<?xml version="1.0" encoding="utf-8"?>
<!-- Generator: Adobe Illustrator 21.0.0, SVG Export Plug-In . SVG Version: 6.00 Build 0)  -->
<svg version="1.1" id="Capa_2" xmlns="http://www.w3.org/2000/svg" xmlns:xlink="http://www.w3.org/1999/xlink" x="0px" y="0px"
	 viewBox="0 0 146.5 146.5" style="enable-background:new 0 0 146.5 146.5;" xml:space="preserve">
<style type="text/css">
	.st0{fill:#C8355D;}
</style>
<path class="st0" d="M146.5,73.3c0,8.3-6.7,15-15,15s-15-6.7-15-15c0,0,0.3-1.4,0.5-3.8c1-10.6,0.8-40.7-29.5-53.7
	C50.8,0,20.8,16,6.5,43C18,17.7,43.6,0,73.3,0c39.8,0,72.2,31.8,73.2,71.3L146.5,73.3z"/>
<path class="st0" d="M0,73.3c0-8.3,6.7-15,15-15s15,6.7,15,15c0,0-0.3,1.4-0.5,3.8c-1,10.6-0.8,40.7,29.5,53.7
	c36.8,15.8,66.7-0.3,81-27.3c-11.5,25.4-37.1,43-66.7,43C33.5,146.5,1,114.7,0,75.2L0,73.3z"/>
</svg>
