<?xml version="1.0" encoding="utf-8"?>
<!-- Generator: Adobe Illustrator 21.1.0, SVG Export Plug-In . SVG Version: 6.00 Build 0)  -->
<svg version="1.1" id="Capa_1" xmlns="http://www.w3.org/2000/svg" xmlns:xlink="http://www.w3.org/1999/xlink" x="0px" y="0px"
	 viewBox="0 0 50 25.3" style="enable-background:new 0 0 50 25.3;" xml:space="preserve">
<style type="text/css">
	.st0{fill:#C6345D;}
	.st1{fill:#FFFFFF;}
</style>
<g>
	<path class="st0" d="M-20.5,10.9c-0.2-2.2-1-4.3-1.2-4.8l0,0c0-0.1,0-0.1,0-0.1l0,0c-0.6-1.2-1.7-2-3.1-2.1l0,0
		c0,0-4.3-0.1-7.9,0.6s-5.4,1.2-5.4,1.2l0,0c-0.8,0.2-1.3,0.9-1.4,1.7l0,0c0,0-0.1,0.7,0,1.6s0.3,1.4,0.3,1.4c0,0.1,0.1,0.2,0.2,0.3
		l0,0l0,0l0,0c0.1,0,0.1,0.1,0.2,0.1c0.2,0,0.3-0.2,0.3-0.3v-0.1l0,0l0,0l0,0c-0.1-0.2-0.1-0.3-0.1-0.4c0,0,0,0,0-0.1l0,0l0,0
		c0.1-1.1,0.7-2.1,1.6-2.6l0,0c0,0,0.1-0.1,0.2-0.1c0.1-0.1,0.3-0.1,0.4-0.2c0.7-0.2,2.1-0.6,4.7-1c4.5-0.6,6.5-0.3,6.5-0.3l0,0
		c0.3,0,0.5,0.2,0.7,0.4l0,0c0,0,1.1,1.4,1.5,3.5c0.3,1.9-0.1,4.1-0.2,4.5l0,0l0,0l0,0c-0.1,0.6-0.4,1-0.8,1.4l0,0
		c0,0-2,2.5-13.4,2.8c-8.9,0.2-11.7-0.4-12.6-0.7l0,0c-0.1,0-0.1,0-0.1-0.1l0,0c-0.1,0-0.2-0.1-0.2-0.1l0,0
		c-0.5-0.3-0.9-0.8-0.9-1.5c0-0.1,0-0.1,0-0.2c0,0,0.2-1.4,0.7-2.5c0.6-1.1,1.4-2.3,1.4-2.3l0,0c0.1-0.2,0.2-0.4,0.2-0.6
		c0-0.6-0.5-1.1-1.1-1.1c-0.4,0-0.7,0.2-0.9,0.5l0,0c0,0-0.4,0.5-1.5,2.2s-1.4,3.1-1.4,3.1l0,0c0,0.2-0.1,0.4-0.1,0.6
		c0,1,0.6,1.9,1.4,2.4l0,0c0,0,2.2,1.6,14.4,1.2c10.1-0.3,13.9-1.8,14.9-2.4l0,0c0.2-0.1,0.3-0.2,0.3-0.2l0,0c0.4-0.3,0.8-0.6,1-1
		l0,0c0,0,0.1-0.1,0.1-0.2l0,0C-21.2,14.9-20.3,13-20.5,10.9z"/>
	<path class="st0" d="M-12.9,17.8v-0.1l0,0c0-0.3,0-0.5-0.1-0.8c-0.2-1.4-0.9-3.6-2.7-6.8c-3.4-6-5.8-7.9-5.8-7.9l0,0
		c-0.7-0.6-1.6-0.9-2.4-0.9l0,0c0,0-2.3-0.1-10.6,2.1s-9.2,4.4-9.2,4.4l0,0c-0.1,0.2-0.2,0.5-0.2,0.8c0,0,0,0,0,0.1l0,0
		c0,0,0,0,0,0.1l0,0c0,0.3,0.3,1.4,1.3,2.6c1.3,1.5,2.5,1.8,2.5,1.8l0,0c0.4,0.1,0.8,0.2,1.2,0.2c0.1,0,0.2,0,0.3,0l0,0
		c0,0,1.5,0,4-0.5s3.9-1.3,3.9-1.3l0,0c0.4-0.2,0.6-0.6,0.6-1c0-0.7-0.5-1.2-1.2-1.2c-0.2,0-0.3,0-0.4,0.1l0,0l0,0
		c-0.1,0-0.2,0.1-0.2,0.1c-0.5,0.2-1.6,0.8-3.1,1.2c-1.9,0.5-3.4,0.5-3.4,0.5c-0.4,0-0.8-0.1-1.1-0.3l0,0c0,0-0.5-0.2-1.2-0.9
		c-0.7-0.7-0.9-1.5-0.9-1.5l0,0c-0.1-0.2-0.1-0.4-0.1-0.6c0-0.8,0.4-1.4,1-1.8l0,0c0,0,0.6-0.4,7.6-2.7c5-1.6,7.4-1.8,8.3-1.8l0,0
		h0.1l0,0h0.1c0.1,0,0.2,0,0.2,0l0,0c0.7,0.1,1.3,0.5,1.7,1l0,0c0.3,0.4,2.4,2.8,4.7,7.3c2.5,4.9,2.5,6.7,2.5,6.7l0,0v0.1
		c0,0.1,0,0.1,0,0.2c0,1.9-1.3,3.6-3,4.1l0,0c0,0-3.6,1.5-19.5,1c-15.6-0.4-20.2-3.5-20.2-3.5l0,0c-0.3-0.2-0.5-0.5-0.5-0.9
		c0-0.1,0-0.1,0-0.2l0,0c0,0,0.1-1.4,5-5.6C-49.1,8-43.5,4.4-42.8,4c0,0,0,0,0.1,0l0,0l0,0c0.1-0.1,0.2-0.2,0.2-0.4
		c0-0.3-0.2-0.5-0.5-0.5c-0.1,0-0.2,0-0.2,0.1l0,0l0,0l0,0c-0.7,0.5-8.3,5.4-12.4,8.7c-4.3,3.5-5.2,5.5-5.2,5.5l0,0
		c-0.5,0.9-0.3,2.1,0.4,2.9l0,0c0,0,2.8,3.4,18.9,4.2c15.8,0.8,23.8-0.9,24.2-1c1-0.2,2-0.7,2.8-1.5c0.9-0.9,1.5-2.1,1.6-3.3l0,0
		C-12.9,18.6-12.8,18.3-12.9,17.8z"/>
</g>
<g>
	<path class="st1" d="M42.1,10.4c-0.2-2.3-1-4.5-1.2-5l0,0c0-0.1,0-0.1,0-0.1l0,0c-0.6-1.2-1.8-2.1-3.2-2.2l0,0c0,0-4.5-0.1-8.2,0.6
		S23.8,5,23.8,5l0,0C23,5.3,22.5,6,22.4,6.8l0,0c0,0-0.1,0.7,0,1.7s0.3,1.5,0.3,1.5c0,0.1,0.1,0.2,0.2,0.3l0,0l0,0l0,0
		c0.1,0,0.1,0.1,0.2,0.1c0.2,0,0.3-0.2,0.3-0.3V9.9l0,0l0,0l0,0c-0.1-0.2-0.1-0.3-0.1-0.4c0,0,0,0,0-0.1l0,0l0,0
		C23.4,8.3,24,7.2,25,6.7l0,0c0,0,0.1-0.1,0.2-0.1c0.1-0.1,0.3-0.1,0.4-0.2c0.7-0.2,2.2-0.6,4.9-1C35.1,4.7,37.2,5,37.2,5l0,0
		c0.3,0,0.5,0.2,0.7,0.4l0,0c0,0,1.1,1.5,1.6,3.6c0.3,2-0.1,4.3-0.2,4.7l0,0l0,0l0,0c-0.1,0.6-0.4,1-0.8,1.5l0,0
		c0,0-2.1,2.6-13.9,2.9c-9.2,0.2-12.1-0.4-13.1-0.7l0,0c-0.1,0-0.1,0-0.1-0.1l0,0c-0.1,0-0.2-0.1-0.2-0.1l0,0
		c-0.5-0.3-0.9-0.8-0.9-1.6c0-0.1,0-0.1,0-0.2c0,0,0.2-1.5,0.7-2.6c0.6-1.1,1.5-2.4,1.5-2.4l0,0c0.1-0.2,0.2-0.4,0.2-0.6
		c0-0.6-0.5-1.1-1.1-1.1c-0.4,0-0.7,0.2-0.9,0.5l0,0c0,0-0.4,0.5-1.6,2.3s-1.5,3.2-1.5,3.2l0,0c0,0.2-0.1,0.4-0.1,0.6
		c0,1,0.6,2,1.5,2.5l0,0c0,0,2.3,1.7,14.9,1.2c10.5-0.3,14.4-1.9,15.4-2.5l0,0c0.2-0.1,0.3-0.2,0.3-0.2l0,0c0.4-0.3,0.8-0.6,1-1l0,0
		c0,0,0.1-0.1,0.1-0.2l0,0C41.3,14.6,42.3,12.6,42.1,10.4z"/>
	<path class="st1" d="M50,17.6v-0.1l0,0c0-0.3,0-0.5-0.1-0.8c-0.2-1.5-0.9-3.7-2.8-7.1c-3.5-6.2-6-8.2-6-8.2l0,0
		c-0.7-0.6-1.7-0.9-2.5-0.9l0,0c0,0-2.4-0.1-11,2.2S18,7.2,18,7.2l0,0c-0.1,0.2-0.2,0.5-0.2,0.8c0,0,0,0,0,0.1l0,0c0,0,0,0,0,0.1
		l0,0c0,0.3,0.3,1.5,1.3,2.7c1.3,1.6,2.6,1.9,2.6,1.9l0,0c0.4,0.1,0.8,0.2,1.2,0.2c0.1,0,0.2,0,0.3,0l0,0c0,0,1.6,0,4.1-0.5
		s4-1.3,4-1.3l0,0c0.4-0.2,0.6-0.6,0.6-1c0-0.7-0.5-1.2-1.2-1.2c-0.2,0-0.3,0-0.4,0.1l0,0l0,0c-0.1,0-0.2,0.1-0.2,0.1
		c-0.5,0.2-1.7,0.8-3.2,1.2c-2,0.5-3.5,0.5-3.5,0.5c-0.4,0-0.8-0.1-1.1-0.3l0,0c0,0-0.5-0.2-1.2-0.9c-0.7-0.7-0.9-1.6-0.9-1.6l0,0
		c-0.1-0.2-0.1-0.4-0.1-0.6c0-0.8,0.4-1.5,1-1.9l0,0c0,0,0.6-0.4,7.9-2.8c5.2-1.7,7.7-1.9,8.6-1.9l0,0h0.1l0,0h0.1
		c0.1,0,0.2,0,0.2,0l0,0c0.7,0.1,1.3,0.5,1.8,1l0,0c0.3,0.4,2.5,2.9,4.9,7.6c2.6,5.1,2.6,6.9,2.6,6.9l0,0v0.1c0,0.1,0,0.1,0,0.2
		c0,2-1.3,3.7-3.1,4.3l0,0c0,0-3.7,1.6-20.2,1C7.8,21.6,3,18.4,3,18.4l0,0c-0.3-0.2-0.5-0.5-0.5-0.9c0-0.1,0-0.1,0-0.2l0,0
		c0,0,0.1-1.5,5.2-5.8c4.8-4,10.6-7.8,11.3-8.2c0,0,0,0,0.1,0l0,0l0,0c0.1-0.1,0.2-0.2,0.2-0.4c0-0.3-0.2-0.5-0.5-0.5
		c-0.1,0-0.2,0-0.2,0.1l0,0l0,0l0,0c-0.7,0.5-8.6,5.6-12.9,9c-4.5,3.6-5.4,5.7-5.4,5.7l0,0c-0.5,0.9-0.3,2.2,0.4,3l0,0
		c0,0,2.9,3.5,19.6,4.4c16.4,0.8,24.7-0.9,25.1-1c1-0.2,2.1-0.7,2.9-1.6c0.9-0.9,1.6-2.2,1.7-3.4l0,0C50,18.4,50.1,18.1,50,17.6z"/>
</g>
</svg>
