<?xml version="1.0" encoding="utf-8"?>
<!-- Generator: Adobe Illustrator 21.0.0, SVG Export Plug-In . SVG Version: 6.00 Build 0)  -->
<svg version="1.1" id="Capa_1" xmlns="http://www.w3.org/2000/svg" xmlns:xlink="http://www.w3.org/1999/xlink" x="0px" y="0px"
	 viewBox="0 0 50 25.3" style="enable-background:new 0 0 50 25.3;" xml:space="preserve">
<style type="text/css">
	.st0{fill:#FFFFFF;}
	.st1{fill:none;stroke:#FFFFFF;stroke-miterlimit:10;}
</style>
<g>
	<path class="st0" d="M8.5,17V8.4h1.1v7.6h4.2v1H8.5z"/>
	<path class="st0" d="M14.9,12.8c0-1.4,0.4-2.5,1.1-3.3s1.8-1.2,3-1.2c0.8,0,1.5,0.2,2.1,0.6s1.1,0.9,1.5,1.6s0.5,1.4,0.5,2.3
		c0,0.9-0.2,1.7-0.5,2.3s-0.8,1.2-1.5,1.6s-1.3,0.5-2.1,0.5c-0.8,0-1.5-0.2-2.2-0.6s-1.1-0.9-1.4-1.6S14.9,13.5,14.9,12.8z
		 M16.1,12.8c0,1,0.3,1.9,0.8,2.4s1.3,0.9,2.1,0.9c0.9,0,1.6-0.3,2.1-0.9s0.8-1.5,0.8-2.6c0-0.7-0.1-1.3-0.4-1.8s-0.6-0.9-1-1.2
		s-1-0.4-1.5-0.4c-0.8,0-1.5,0.3-2.1,0.8S16.1,11.5,16.1,12.8z"/>
	<path class="st0" d="M28.6,13.6v-1l3.6,0v3.2c-0.6,0.4-1.1,0.8-1.7,1s-1.2,0.3-1.8,0.3c-0.8,0-1.6-0.2-2.3-0.5
		c-0.7-0.4-1.2-0.9-1.6-1.6s-0.5-1.4-0.5-2.3c0-0.8,0.2-1.6,0.5-2.3s0.9-1.3,1.5-1.6c0.7-0.4,1.4-0.5,2.3-0.5c0.6,0,1.2,0.1,1.7,0.3
		s0.9,0.5,1.2,0.8s0.5,0.8,0.7,1.4l-1,0.3c-0.1-0.4-0.3-0.8-0.5-1s-0.5-0.5-0.8-0.6S29,9.2,28.6,9.2c-0.5,0-1,0.1-1.3,0.2
		s-0.7,0.4-0.9,0.6s-0.4,0.5-0.5,0.8c-0.2,0.5-0.3,1.1-0.3,1.7c0,0.8,0.1,1.4,0.4,1.9c0.3,0.5,0.6,0.9,1.2,1.1s1,0.4,1.6,0.4
		c0.5,0,1-0.1,1.4-0.3s0.8-0.4,1.1-0.6v-1.6H28.6z"/>
	<path class="st0" d="M33.6,12.8c0-1.4,0.4-2.5,1.1-3.3s1.8-1.2,3-1.2c0.8,0,1.5,0.2,2.1,0.6s1.1,0.9,1.5,1.6s0.5,1.4,0.5,2.3
		c0,0.9-0.2,1.7-0.5,2.3s-0.8,1.2-1.5,1.6s-1.3,0.5-2.1,0.5c-0.8,0-1.5-0.2-2.2-0.6s-1.1-0.9-1.4-1.6S33.6,13.5,33.6,12.8z
		 M34.8,12.8c0,1,0.3,1.9,0.8,2.4s1.3,0.9,2.1,0.9c0.9,0,1.6-0.3,2.1-0.9s0.8-1.5,0.8-2.6c0-0.7-0.1-1.3-0.4-1.8s-0.6-0.9-1-1.2
		s-1-0.4-1.5-0.4c-0.8,0-1.5,0.3-2.1,0.8S34.8,11.5,34.8,12.8z"/>
</g>
<path class="st1" d="M43.8,23h-37c-2.2,0-3.9-1.8-3.9-3.9V6.4c0-2.2,1.8-3.9,3.9-3.9h37c2.2,0,3.9,1.8,3.9,3.9v12.7
	C47.7,21.2,45.9,23,43.8,23z"/>
</svg>
