<?xml version="1.0" encoding="utf-8"?>
<!-- Generator: Adobe Illustrator 21.0.0, SVG Export Plug-In . SVG Version: 6.00 Build 0)  -->
<svg version="1.1" id="Capa_1" xmlns="http://www.w3.org/2000/svg" xmlns:xlink="http://www.w3.org/1999/xlink" x="0px" y="0px"
	 viewBox="0 0 76.4 76.4" style="enable-background:new 0 0 76.4 76.4;" xml:space="preserve">
<style type="text/css">
	.st0{fill:#49A947;}
	.st1{fill:#002C47;}
	.st2{fill:#F26E01;}
	.st3{display:none;}
</style>
<g id="Capa_3">
	<path class="st0" d="M53.9,64.6c-5.5,5-13.1,7.8-21,7.8c-17.6,0-31.8-14.1-31.8-31.8S15.3,8.9,32.9,8.9c7.5,0,14.4,2.6,20,6.8
		c-4.6-2.6-9.8-4.3-15.4-4.3c-16.1,0-29.1,13.1-29.1,29.1s13.1,29.2,29.2,29.2C43.4,69.8,49.3,67.9,53.9,64.6z"/>
	<path class="st1" d="M21.1,59.6c4.6,4,10.5,6.2,16.7,6.2C51.9,65.8,63,54.3,63,40.5c0-14.1-11.5-25.3-25.3-25.3
		c-5.8,0-11.5,2-15.8,5.5c3.6-2.3,7.8-3.6,12.5-3.6c12.8,0,23.3,10.5,23.3,23.3S47.3,63.7,34.5,63.7C29.6,63.9,25.1,62.3,21.1,59.6z
		"/>
	<path class="st2" d="M37.2,61.6c0,0-5.3-12.8-16.1-22.3l5.3-10.1c0,0,7.2,6.8,11.5,13.1c0,0,5.3-8.8,14.8-19.6S75.3,4,75.3,4
		C59.2,22.7,46.1,42,37.2,61.6z"/>
</g>
<g id="Capa_2" class="st3">
	
		<image style="display:inline;overflow:visible;opacity:0.58;enable-background:new    ;" width="502" height="540" xlink:href="../../../../../Users/JOHN/Pictures/Screenshot_20171117-112810.png"  transform="matrix(6.157408e-02 0 0 6.157408e-02 -5.9109 27.4583)">
	</image>
	
		<image style="display:inline;overflow:visible;enable-background:new    ;" width="502" height="540" xlink:href="../../../../../Users/JOHN/Pictures/Screenshot_20171117-112810.png"  transform="matrix(4.704515e-02 0 0 4.704515e-02 -25.4507 16.0616)">
	</image>
</g>
</svg>
