<?xml version="1.0" encoding="utf-8"?>
<!-- Generator: Adobe Illustrator 21.0.0, SVG Export Plug-In . SVG Version: 6.00 Build 0)  -->
<svg version="1.1" xmlns="http://www.w3.org/2000/svg" xmlns:xlink="http://www.w3.org/1999/xlink" x="0px" y="0px"
	 viewBox="0 0 50 25.3" style="enable-background:new 0 0 50 25.3;" xml:space="preserve">
<style type="text/css">
	.st0{fill:#49A947;}
	.st1{fill:#002C47;}
	.st2{fill:#F26E01;}
	.st3{fill:#FFFFFF;}
	.st4{display:none;}
</style>
<g id="Capa_3">
	<path class="st0" d="M43,20.9c-1.7,1.5-4,2.4-6.4,2.4c-5.4,0-9.7-4.3-9.7-9.7c0-5.4,4.3-9.7,9.7-9.7c2.3,0,4.4,0.8,6.1,2.1
		c-1.4-0.8-3-1.3-4.7-1.3c-4.9,0-8.9,4-8.9,8.9c0,4.9,4,8.9,8.9,8.9C39.8,22.5,41.6,21.9,43,20.9z"/>
	<path class="st1" d="M33,19.4c1.4,1.2,3.2,1.9,5.1,1.9c4.3,0,7.7-3.5,7.7-7.7c0-4.3-3.5-7.7-7.7-7.7c-1.8,0-3.5,0.6-4.8,1.7
		c1.1-0.7,2.4-1.1,3.8-1.1c3.9,0,7.1,3.2,7.1,7.1c0,3.9-3.2,7.1-7.1,7.1C35.6,20.7,34.2,20.2,33,19.4z"/>
	<path class="st2" d="M37.9,20c0,0-1.6-3.9-4.9-6.8l1.6-3.1c0,0,2.2,2.1,3.5,4c0,0,1.6-2.7,4.5-6s6.9-5.7,6.9-5.7
		C44.6,8.1,40.6,14,37.9,20z"/>
	<g>
		<g>
			<path class="st3" d="M32.3,21.9C32.3,21.8,32.4,21.8,32.3,21.9c0.1-0.1,0.2-0.1,0.2-0.1c0.1,0,0.1,0,0.2,0c0.1,0,0.2,0.1,0.3,0.1
				c0.1,0,0.1,0.1,0.2,0.1c0-0.1,0.1-0.2,0.1-0.3c0.1,0,0.1,0,0.2,0.1c-0.1,0.4-0.1,0.5-0.3,0.9c-0.2-0.1-0.3-0.1-0.5-0.2
				c-0.1,0-0.2-0.1-0.2-0.1c-0.1,0-0.1-0.1-0.2-0.1c-0.1-0.1-0.1-0.1-0.1-0.2C32.3,22,32.3,21.9,32.3,21.9z M32.5,22
				C32.5,22,32.5,22,32.5,22c0,0.1,0,0.1,0.1,0.2c0,0,0.1,0.1,0.1,0.1c0,0,0.1,0.1,0.2,0.1c0.1,0,0.1,0.1,0.2,0.1
				c0-0.2,0.1-0.2,0.1-0.3c-0.1,0-0.1,0-0.2-0.1c-0.1,0-0.2-0.1-0.2-0.1c-0.1,0-0.1,0-0.1,0C32.6,21.9,32.6,21.9,32.5,22
				C32.6,21.9,32.5,22,32.5,22z"/>
			<path class="st3" d="M31.3,20.4c0.1,0.1,0.1,0.1,0.2,0.2c0.1,0.3,0.1,0.4,0.2,0.6c0.1,0.1,0.2,0.1,0.3,0.2
				c0.1-0.1,0.1-0.2,0.2-0.3c0.1,0,0.1,0.1,0.2,0.1c-0.2,0.4-0.2,0.4-0.4,0.8c-0.2-0.1-0.3-0.1-0.4-0.3c-0.1-0.1-0.2-0.1-0.2-0.2
				c-0.1,0-0.1-0.1-0.1-0.1c0-0.1-0.1-0.1-0.1-0.2c0,0,0-0.1,0-0.1c0-0.1,0.1-0.1,0.2-0.1c0.1,0,0.2,0,0.3,0.1
				C31.4,20.9,31.4,20.7,31.3,20.4z M31.3,21.3C31.3,21.3,31.3,21.3,31.3,21.3c0,0.1,0,0.1,0,0.2c0,0,0,0.1,0.1,0.1
				c0,0,0.1,0.1,0.1,0.1c0.1,0.1,0.1,0.1,0.2,0.1c0.1-0.1,0.1-0.2,0.2-0.3c-0.1,0-0.1-0.1-0.2-0.1c-0.1,0-0.1-0.1-0.2-0.1
				c0,0-0.1,0-0.1,0C31.4,21.2,31.4,21.2,31.3,21.3C31.3,21.2,31.3,21.3,31.3,21.3z"/>
			<path class="st3" d="M30.4,19.6c0.3,0.3,0.4,0.5,0.7,0.7c-0.3,0.3-0.4,0.4-0.6,0.8c-0.4-0.3-0.5-0.4-0.8-0.8c0,0,0.1-0.1,0.1-0.1
				c0.2,0.3,0.4,0.4,0.6,0.6c0.1-0.1,0.1-0.1,0.2-0.2c-0.3-0.2-0.4-0.4-0.6-0.6c0,0,0,0,0.1-0.1c0.2,0.3,0.4,0.4,0.6,0.6
				c0.1-0.1,0.1-0.2,0.2-0.3C30.7,20,30.5,19.9,30.4,19.6C30.4,19.6,30.4,19.6,30.4,19.6z"/>
			<path class="st3" d="M29.2,18.6c0.1,0,0.1-0.1,0.2-0.1c0.1,0,0.1,0,0.2,0c0.1,0,0.1,0.1,0.2,0.1c0.1,0,0.1,0.1,0.2,0.2
				c0.1,0.1,0.1,0.2,0.1,0.2c0,0.1,0,0.1,0.1,0.2c0,0.1,0,0.1,0,0.2c0,0.1-0.1,0.1-0.1,0.2c-0.2,0.2-0.3,0.2-0.4,0.4
				c-0.1-0.1-0.1-0.1-0.1-0.2c0.2-0.2,0.3-0.3,0.5-0.4c0,0,0.1-0.1,0.1-0.1c0,0,0-0.1,0-0.1c0,0,0-0.1,0-0.1c0-0.1-0.1-0.1-0.1-0.2
				c0-0.1-0.1-0.1-0.1-0.1c0,0-0.1-0.1-0.1-0.1c0,0-0.1,0-0.1,0c0,0-0.1,0-0.1,0.1c-0.2,0.1-0.3,0.2-0.5,0.4
				c-0.1-0.1-0.1-0.1-0.1-0.2C28.9,18.8,29,18.8,29.2,18.6z"/>
			<path class="st3" d="M28.8,17c0,0.1,0.1,0.1,0.1,0.2c-0.2,0.4-0.3,0.7-0.5,1.1c0.3-0.2,0.5-0.3,0.8-0.5c0,0.1,0.1,0.1,0.1,0.2
				c-0.3,0.2-0.5,0.3-0.9,0.6c-0.1-0.1-0.1-0.2-0.2-0.3c0.2-0.4,0.2-0.6,0.4-1c-0.3,0.2-0.5,0.2-0.8,0.4c0-0.1,0-0.1-0.1-0.2
				C28.3,17.3,28.5,17.2,28.8,17z"/>
			<path class="st3" d="M28.6,16.2c0.1,0.2,0.1,0.3,0.2,0.5c0,0-0.1,0-0.1,0c0-0.1,0-0.1-0.1-0.2c-0.3,0.1-0.5,0.2-0.8,0.3
				c0,0.1,0,0.1,0.1,0.2c0,0-0.1,0-0.1,0c-0.1-0.2-0.1-0.4-0.2-0.6c0,0,0.1,0,0.1,0c0,0.1,0,0.1,0.1,0.2c0.3-0.1,0.5-0.2,0.8-0.3
				C28.5,16.3,28.5,16.3,28.6,16.2C28.5,16.2,28.5,16.2,28.6,16.2z"/>
			<path class="st3" d="M27.3,14.9c0.4,0.2,0.7,0.2,1.1,0.4c0,0.1,0,0.2,0,0.3c-0.4,0.3-0.5,0.5-0.9,0.8c0-0.1,0-0.1-0.1-0.2
				c0.3-0.3,0.5-0.5,0.8-0.7c-0.4-0.1-0.6-0.2-1-0.3C27.3,15.1,27.3,15,27.3,14.9z"/>
			<path class="st3" d="M28.2,13.6c0,0.4,0,0.6,0,1c-0.4,0-0.6,0.1-1,0.1c0-0.4-0.1-0.6,0-1.1c0,0,0.1,0,0.1,0c0,0.3,0,0.5,0,0.9
				c0.1,0,0.2,0,0.3,0c0-0.3,0-0.5,0-0.8c0,0,0.1,0,0.1,0c0,0.3,0,0.5,0,0.8c0.2,0,0.2,0,0.4,0c0-0.3,0-0.5,0-0.8
				C28.1,13.6,28.2,13.6,28.2,13.6z"/>
			<path class="st3" d="M28.3,12.1c0,0.1,0,0.1,0,0.2c-0.2,0.2-0.3,0.2-0.5,0.4c0,0.1,0,0.2,0,0.3c0.2,0,0.2,0,0.4,0
				c0,0.1,0,0.1,0,0.2c-0.4,0-0.6,0-1,0c0-0.2,0-0.3,0-0.5c0-0.1,0-0.2,0-0.2c0-0.1,0-0.1,0.1-0.2c0-0.1,0.1-0.1,0.1-0.1
				c0,0,0.1,0,0.1,0c0.1,0,0.1,0.1,0.2,0.1c0,0.1,0.1,0.1,0.1,0.2C28,12.4,28.1,12.3,28.3,12.1z M27.5,12.4
				C27.5,12.4,27.5,12.4,27.5,12.4c-0.1,0-0.1,0-0.1,0.1c0,0,0,0.1,0,0.1c0,0,0,0.1,0,0.1c0,0.1,0,0.2,0,0.3c0.2,0,0.2,0,0.4,0
				c0-0.1,0-0.1,0-0.2c0-0.1,0-0.1,0-0.2c0,0,0-0.1,0-0.1C27.7,12.5,27.7,12.5,27.5,12.4C27.6,12.5,27.6,12.4,27.5,12.4z"/>
			<path class="st3" d="M28.3,10.8c0,0,0.1,0,0.1,0.1c0,0,0,0.1,0.1,0.1c0,0.1,0,0.1,0,0.2c0,0.1,0,0.2,0,0.2c0,0.1-0.1,0.2-0.1,0.3
				c0,0.1-0.1,0.2-0.1,0.2c-0.1,0-0.1,0-0.2,0c0,0,0,0,0,0c0.1-0.1,0.1-0.1,0.1-0.2c0-0.1,0.1-0.2,0.1-0.3c0-0.1,0-0.2,0-0.3
				c0-0.1,0-0.1-0.1-0.1c0,0-0.1,0-0.1,0c0,0-0.1,0.1-0.1,0.1c0,0,0,0.1-0.1,0.2c0,0.1,0,0.1-0.1,0.2c0,0.1-0.1,0.2-0.2,0.3
				c-0.1,0.1-0.1,0.1-0.2,0.1c-0.1,0-0.1-0.1-0.2-0.2s0-0.3,0-0.5c0-0.1,0.1-0.2,0.1-0.3c0-0.1,0.1-0.2,0.1-0.2c0.1,0,0.1,0,0.2,0.1
				c0,0,0,0,0,0c0,0-0.1,0.1-0.1,0.2c0,0.1-0.1,0.2-0.1,0.3c0,0.1,0,0.2,0,0.3c0,0.1,0,0.1,0.1,0.1c0,0,0.1,0,0.1,0
				c0,0,0.1-0.1,0.1-0.2c0,0,0-0.1,0.1-0.2c0-0.1,0.1-0.1,0.1-0.2c0-0.1,0.1-0.2,0.2-0.2C28.2,10.8,28.3,10.8,28.3,10.8z"/>
			<path class="st3" d="M28.9,10.1c-0.1,0.2-0.1,0.3-0.2,0.5c0,0-0.1,0-0.1,0c0-0.1,0-0.1,0.1-0.2c-0.3-0.1-0.5-0.2-0.8-0.3
				c0,0.1,0,0.1-0.1,0.2c0,0-0.1,0-0.1,0c0.1-0.2,0.1-0.4,0.2-0.6c0,0,0.1,0,0.1,0.1c0,0.1,0,0.1-0.1,0.2c0.3,0.1,0.4,0.2,0.7,0.4
				C28.7,10.2,28.8,10.2,28.9,10.1C28.8,10.1,28.8,10.1,28.9,10.1z"/>
			<path class="st3" d="M28.8,8.4c-0.1,0.2-0.2,0.3-0.3,0.5c0.3,0.2,0.5,0.3,0.8,0.5c0,0.1-0.1,0.1-0.1,0.2
				c-0.3-0.2-0.5-0.3-0.8-0.5c-0.1,0.2-0.2,0.3-0.2,0.5c0,0-0.1,0-0.1-0.1C28.2,9,28.4,8.8,28.8,8.4C28.7,8.3,28.7,8.3,28.8,8.4z"/>
			<path class="st3" d="M30.2,7.8C30.1,7.9,30.1,8,30.1,8c-0.1,0-0.2,0-0.3-0.1c-0.2,0.2-0.2,0.3-0.4,0.6c0.1,0.1,0.1,0.2,0.2,0.3
				c0,0.1-0.1,0.1-0.1,0.2c-0.2-0.5-0.3-0.6-0.5-1.1C29,7.8,29,7.7,29.1,7.7C29.6,7.8,29.8,7.7,30.2,7.8z M29.6,7.9
				c-0.2,0-0.3,0-0.5-0.1c0.1,0.2,0.1,0.3,0.2,0.5C29.5,8.2,29.5,8.1,29.6,7.9z"/>
			<path class="st3" d="M31.2,6.8c-0.1,0.1-0.1,0.1-0.2,0.2c-0.2,0-0.4,0-0.6,0.1c-0.1,0.1-0.1,0.1-0.2,0.2c0.1,0.1,0.2,0.1,0.3,0.3
				c-0.1,0.1-0.1,0.1-0.1,0.2c-0.3-0.3-0.4-0.4-0.7-0.7c0.1-0.1,0.2-0.2,0.3-0.3c0.1-0.1,0.1-0.1,0.2-0.2c0.1,0,0.1-0.1,0.2-0.1
				c0.1,0,0.1,0,0.2,0c0,0,0.1,0,0.1,0.1c0,0,0.1,0.1,0,0.2c0,0.1-0.1,0.1-0.1,0.2C30.8,6.8,30.9,6.8,31.2,6.8z M30.4,6.6
				C30.4,6.6,30.4,6.6,30.4,6.6c-0.1,0-0.1,0-0.2,0c0,0-0.1,0-0.1,0.1c0,0-0.1,0.1-0.1,0.1C30,6.8,30,6.9,29.9,6.9
				C30,7,30,7.1,30.1,7.2c0.1-0.1,0.1-0.1,0.1-0.2c0,0,0.1-0.1,0.1-0.1c0,0,0.1-0.1,0.1-0.1C30.5,6.7,30.5,6.7,30.4,6.6
				C30.5,6.7,30.5,6.6,30.4,6.6z"/>
			<path class="st3" d="M31.8,6.3c-0.2,0.1-0.3,0.2-0.5,0.4c0,0,0-0.1-0.1-0.1c0.1-0.1,0.1-0.1,0.2-0.1c-0.2-0.3-0.2-0.3-0.4-0.5
				C30.9,6,30.9,6,30.8,6.1c0,0,0,0-0.1-0.1c0.2-0.2,0.3-0.2,0.6-0.4c0,0,0,0.1,0.1,0.1c-0.1,0-0.1,0.1-0.2,0.1
				c0.2,0.3,0.2,0.3,0.4,0.5C31.6,6.3,31.7,6.3,31.8,6.3C31.8,6.3,31.8,6.3,31.8,6.3z"/>
			<path class="st3" d="M32.9,4.9C33,5,33,5,33.1,5c0.1,0,0.1,0.1,0.1,0.1s0,0.1,0,0.2c0,0.1-0.1,0.1-0.1,0.2c0,0.1-0.1,0.1-0.2,0.2
				s-0.2,0.1-0.3,0.2c-0.1,0-0.2,0.1-0.3,0.1c-0.1,0-0.2,0-0.2,0c-0.1,0-0.1,0-0.2,0c-0.1,0-0.1-0.1-0.1-0.1c0-0.1,0-0.1,0-0.2
				c0-0.1,0-0.1,0.1-0.2c0-0.1,0.1-0.1,0.2-0.2c0.1-0.1,0.2-0.1,0.3-0.2C32.4,5,32.5,5,32.6,4.9C32.7,4.9,32.8,4.9,32.9,4.9z
				 M33,5.2c0-0.1-0.1-0.1-0.2-0.1c-0.1,0-0.3,0-0.4,0.1c-0.2,0.1-0.3,0.2-0.3,0.3s-0.1,0.2,0,0.3c0,0.1,0.1,0.1,0.2,0.1
				c0.1,0,0.2,0,0.4-0.1c0.1-0.1,0.2-0.2,0.3-0.2C33,5.4,33,5.3,33,5.2z"/>
		</g>
	</g>
</g>
<g id="Capa_2" class="st4">
	
		<image style="overflow:visible;opacity:0.58;" width="502" height="540" xlink:href="../../../../../Users/JOHN/Pictures/Screenshot_20171117-112810.png"  transform="matrix(6.157408e-02 0 0 6.157408e-02 19.0898 1.9)">
	</image>
	
		<image style="display:inline;overflow:visible;" width="502" height="540" xlink:href="../../../../../Users/JOHN/Pictures/Screenshot_20171117-112810.png"  transform="matrix(4.704515e-02 0 0 4.704515e-02 -0.45 -9.4967)">
	</image>
</g>
<g id="Capa_1">
	<path class="st1" d="M7.7,9.1c0,0-2.5-1.4-4.7,0.3s-1.6,6.2,0.7,7c2.3,0.8,4.1-0.2,4.1-0.2v-0.8c0,0-5.1,1.8-5-2.8
		c0.1-4.5,4.5-2.9,5-2.3V9.1z"/>
	<rect x="9.1" y="9" class="st1" width="1.2" height="7.8"/>
	<path class="st1" d="M12.5,9h3.9c0,0-0.4,1.5-0.6,1.5S15,9.9,14.4,9.8c-0.5,0-0.8,0.1-0.8,0.1v2.2h2.6c0,0-0.6,1.4-0.8,1.4
		c-0.1,0-0.8-0.4-1.1-0.4c-0.3,0-0.7,0.1-0.7,0.1v2.4c0,0,0.1,0.2,0.5,0.1c0.5,0,1.6-0.3,1.9-0.4c0.2-0.1,0.6-0.4,0.7-0.3
		c0.1,0.1-0.5,1.6-0.5,1.6h-3.8V9z"/>
	<polygon class="st1" points="17.5,9 19.2,9 23.7,14.9 23.7,9 24.7,9 24.7,16 25,16.7 23.6,16.7 19.4,11.4 19.4,16.7 18.4,16.7 
		18.4,10 	"/>
</g>
</svg>
