<?xml version="1.0" encoding="utf-8"?>
<!-- Generator: Adobe Illustrator 21.0.0, SVG Export Plug-In . SVG Version: 6.00 Build 0)  -->
<svg version="1.1" id="Capa_1" xmlns="http://www.w3.org/2000/svg" xmlns:xlink="http://www.w3.org/1999/xlink" x="0px" y="0px"
	 viewBox="0 0 152.9 77.4" style="enable-background:new 0 0 152.9 77.4;" xml:space="preserve">
<style type="text/css">
	.st0{fill:#49A947;}
	.st1{fill:#999999;}
	.st2{fill:#F26E01;}
	.st3{display:none;}
	.st4{fill:#FFFFFF;}
</style>
<g id="Capa_3">
	<path class="st0" d="M128.8,62.8c-5,4.5-11.9,7.1-19,7.1c-16,0-28.8-12.8-28.8-28.8s12.8-28.8,28.8-28.8c6.8,0,13.1,2.4,18.1,6.2
		c-4.2-2.4-8.9-3.9-14-3.9c-14.6,0-26.4,11.9-26.4,26.4S99.4,67.5,114,67.5C119.3,67.5,124.6,65.8,128.8,62.8z"/>
	<path class="st1" d="M99.1,58.3c4.2,3.6,9.5,5.6,15.1,5.6c12.8,0,22.9-10.4,22.9-22.9c0-12.8-10.4-22.9-22.9-22.9
		c-5.3,0-10.4,1.8-14.3,5c3.3-2.1,7.1-3.3,11.3-3.3c11.6,0,21.1,9.5,21.1,21.1S122.8,62,111.2,62C106.8,62.2,102.7,60.7,99.1,58.3z"
		/>
	<path class="st2" d="M113.7,60.1c0,0-4.8-11.6-14.6-20.2l4.8-9.2c0,0,6.5,6.2,10.4,11.9c0,0,4.8-8,13.4-17.8s20.5-16.9,20.5-16.9
		C133.6,24.8,121.7,42.3,113.7,60.1z"/>
</g>
<g id="Capa_2" class="st3">
	
		<image style="display:inline;overflow:visible;opacity:0.58;enable-background:new    ;" width="502" height="540" xlink:href="../../../../../Users/JOHN/Pictures/Screenshot_20171117-112810.png"  transform="matrix(6.157408e-02 0 0 6.157408e-02 70.5391 27.9333)">
	</image>
	
		<image style="display:inline;overflow:visible;enable-background:new    ;" width="502" height="540" xlink:href="../../../../../Users/JOHN/Pictures/Screenshot_20171117-112810.png"  transform="matrix(4.704515e-02 0 0 4.704515e-02 50.9993 16.5366)">
	</image>
</g>
<g id="Capa_1_1_">
	<path class="st4" d="M23.9,27.7c0,0-7.4-4.2-14,0.9S5.1,47,12,49.4c6.8,2.4,12.2-0.6,12.2-0.6v-2.4c0,0-15.1,5.3-14.9-8.3
		c0.3-13.4,13.4-8.6,14.9-6.8v-3.6C24.2,27.7,23.9,27.7,23.9,27.7z"/>
	<rect x="28.1" y="27.4" class="st4" width="3.6" height="23.2"/>
	<path class="st4" d="M38.2,27.4h11.6c0,0-1.2,4.5-1.8,4.5s-2.4-1.8-4.2-2.1c-1.5,0-2.4,0.3-2.4,0.3v6.5h7.7c0,0-1.8,4.2-2.4,4.2
		c-0.3,0-2.4-1.2-3.3-1.2c-0.9,0-2.1,0.3-2.1,0.3V47c0,0,0.3,0.6,1.5,0.3c1.5,0,4.8-0.9,5.6-1.2c0.6-0.3,1.8-1.2,2.1-0.9
		S49,50,49,50H37.9V27.4H38.2z"/>
	<polygon class="st4" points="53.1,27.4 58.1,27.4 71.5,45 71.5,27.4 74.4,27.4 74.4,48.2 75.3,50.3 71.2,50.3 58.7,34.6 58.7,50.3 
		55.7,50.3 55.7,30.4 	"/>
</g>
</svg>
