<?xml version="1.0" encoding="utf-8"?>
<!-- Generator: Adobe Illustrator 21.0.0, SVG Export Plug-In . SVG Version: 6.00 Build 0)  -->
<svg version="1.1" id="Capa_1" xmlns="http://www.w3.org/2000/svg" xmlns:xlink="http://www.w3.org/1999/xlink" x="0px" y="0px"
	 viewBox="0 0 152.9 77.4" style="enable-background:new 0 0 152.9 77.4;" xml:space="preserve">
<style type="text/css">
	.st0{fill:#49A947;}
	.st1{fill:#002C47;}
	.st2{fill:#F26E01;}
	.st3{fill:#FFFFFF;}
	.st4{display:none;}
</style>
<g id="Capa_3">
	<path class="st0" d="M128.8,62.8c-5,4.5-11.9,7.1-19,7.1c-16,0-28.8-12.8-28.8-28.8s12.8-28.8,28.8-28.8c6.8,0,13.1,2.4,18.1,6.2
		c-4.2-2.4-8.9-3.9-14-3.9c-14.6,0-26.4,11.9-26.4,26.4S99.4,67.5,114,67.5C119.3,67.5,124.6,65.8,128.8,62.8z"/>
	<path class="st1" d="M99.1,58.3c4.2,3.6,9.5,5.6,15.1,5.6c12.8,0,22.9-10.4,22.9-22.9c0-12.8-10.4-22.9-22.9-22.9
		c-5.3,0-10.4,1.8-14.3,5c3.3-2.1,7.1-3.3,11.3-3.3c11.6,0,21.1,9.5,21.1,21.1s-9.5,21.1-21.1,21.1C106.8,62.2,102.7,60.7,99.1,58.3
		z"/>
	<path class="st2" d="M113.7,60.1c0,0-4.8-11.6-14.6-20.2l4.8-9.2c0,0,6.5,6.2,10.4,11.9c0,0,4.8-8,13.4-17.8s20.5-16.9,20.5-16.9
		C133.6,24.8,121.7,42.3,113.7,60.1z"/>
	<g>
		<g>
			<path class="st3" d="M97,65.8C97,65.5,97.3,65.5,97,65.8c0.3-0.3,0.6-0.3,0.6-0.3c0.3,0,0.3,0,0.6,0c0.3,0,0.6,0.3,0.9,0.3
				c0.3,0,0.3,0.3,0.6,0.3c0-0.3,0.3-0.6,0.3-0.9c0.3,0,0.3,0,0.6,0.3c-0.3,1.2-0.3,1.5-0.9,2.7c-0.6-0.3-0.9-0.3-1.5-0.6
				c-0.3,0-0.6-0.3-0.6-0.3c-0.3,0-0.3-0.3-0.6-0.3c-0.3-0.3-0.3-0.3-0.3-0.6C97,66.1,97,65.8,97,65.8z M97.6,66.1L97.6,66.1
				c0,0.3,0,0.3,0.3,0.6l0.3,0.3c0,0,0.3,0.3,0.6,0.3c0.3,0,0.3,0.3,0.6,0.3c0-0.6,0.3-0.6,0.3-0.9c-0.3,0-0.3,0-0.6-0.3
				c-0.3,0-0.6-0.3-0.6-0.3c-0.3,0-0.3,0-0.3,0C97.9,65.8,97.9,65.8,97.6,66.1C97.9,65.8,97.6,66.1,97.6,66.1z"/>
			<path class="st3" d="M94.1,61.3c0.3,0.3,0.3,0.3,0.6,0.6c0.3,0.9,0.3,1.2,0.6,1.8c0.3,0.3,0.6,0.3,0.9,0.6
				c0.3-0.3,0.3-0.6,0.6-0.9c0.3,0,0.3,0.3,0.6,0.3c-0.6,1.2-0.6,1.2-1.2,2.4c-0.6-0.3-0.9-0.3-1.2-0.9c-0.3-0.3-0.6-0.3-0.6-0.6
				c-0.3,0-0.3-0.3-0.3-0.3c0-0.3-0.3-0.3-0.3-0.6v-0.3c0-0.3,0.3-0.3,0.6-0.3s0.6,0,0.9,0.3C94.3,62.8,94.3,62.2,94.1,61.3z
				 M94.1,64L94.1,64c0,0.3,0,0.3,0,0.6c0,0,0,0.3,0.3,0.3l0.3,0.3c0.3,0.3,0.3,0.3,0.6,0.3c0.3-0.3,0.3-0.6,0.6-0.9
				c-0.3,0-0.3-0.3-0.6-0.3S94.9,64,94.6,64h-0.3C94.3,63.7,94.3,63.7,94.1,64C94.1,63.7,94.1,64,94.1,64z"/>
			<path class="st3" d="M91.4,58.9c0.9,0.9,1.2,1.5,2.1,2.1c-0.9,0.9-1.2,1.2-1.8,2.4c-1.2-0.9-1.5-1.2-2.4-2.4l0.3-0.3
				c0.6,0.9,1.2,1.2,1.8,1.8c0.3-0.3,0.3-0.3,0.6-0.6c-0.9-0.6-1.2-1.2-1.8-1.8c0,0,0,0,0.3-0.3c0.6,0.9,1.2,1.2,1.8,1.8
				c0.3-0.3,0.3-0.6,0.6-0.9C92.3,60.1,91.7,59.8,91.4,58.9L91.4,58.9z"/>
			<path class="st3" d="M87.8,56c0.3,0,0.3-0.3,0.6-0.3c0.3,0,0.3,0,0.6,0c0.3,0,0.3,0.3,0.6,0.3s0.3,0.3,0.6,0.6
				c0.3,0.3,0.3,0.6,0.3,0.6c0,0.3,0,0.3,0.3,0.6c0,0.3,0,0.3,0,0.6c0,0.3-0.3,0.3-0.3,0.6c-0.6,0.6-0.9,0.6-1.2,1.2
				C89,59.8,89,59.8,89,59.5c0.6-0.6,0.9-0.9,1.5-1.2l0.3-0.3v-0.3v-0.3c0-0.3-0.3-0.3-0.3-0.6s-0.3-0.3-0.3-0.3l-0.3-0.3h-0.3
				c0,0-0.3,0-0.3,0.3c-0.6,0.3-0.9,0.6-1.5,1.2c-0.3-0.3-0.3-0.3-0.3-0.6C86.9,56.6,87.2,56.6,87.8,56z"/>
			<path class="st3" d="M86.6,51.2c0,0.3,0.3,0.3,0.3,0.6c-0.6,1.2-0.9,2.1-1.5,3.3c0.9-0.6,1.5-0.9,2.4-1.5c0,0.3,0.3,0.3,0.3,0.6
				c-0.9,0.6-1.5,0.9-2.7,1.8c-0.3-0.3-0.3-0.6-0.6-0.9c0.6-1.2,0.6-1.8,1.2-3c-0.9,0.6-1.5,0.6-2.4,1.2c0-0.3,0-0.3-0.3-0.6
				C85.1,52.1,85.7,51.8,86.6,51.2z"/>
			<path class="st3" d="M86,48.8c0.3,0.6,0.3,0.9,0.6,1.5h-0.3c0-0.3,0-0.3-0.3-0.6c-0.9,0.3-1.5,0.6-2.4,0.9c0,0.3,0,0.3,0.3,0.6
				h-0.3c-0.3-0.6-0.3-1.2-0.6-1.8h0.3c0,0.3,0,0.3,0.3,0.6c0.9-0.3,1.5-0.6,2.4-0.9C85.7,49.1,85.7,49.1,86,48.8
				C85.7,48.8,85.7,48.8,86,48.8z"/>
			<path class="st3" d="M82.2,45c1.2,0.6,2.1,0.6,3.3,1.2c0,0.3,0,0.6,0,0.9c-1.2,0.9-1.5,1.5-2.7,2.4c0-0.3,0-0.3-0.3-0.6
				c0.9-0.9,1.5-1.5,2.4-2.1c-1.2-0.3-1.8-0.6-3-0.9C82.2,45.6,82.2,45.3,82.2,45z"/>
			<path class="st3" d="M84.8,41.1c0,1.2,0,1.8,0,3c-1.2,0-1.8,0.3-3,0.3c0-1.2-0.3-1.8,0-3.3h0.3c0,0.9,0,1.5,0,2.7
				c0.3,0,0.6,0,0.9,0c0-0.9,0-1.5,0-2.4h0.3c0,0.9,0,1.5,0,2.4c0.6,0,0.6,0,1.2,0c0-0.9,0-1.5,0-2.4C84.5,41.1,84.8,41.1,84.8,41.1
				z"/>
			<path class="st3" d="M85.1,36.7c0,0.3,0,0.3,0,0.6c-0.6,0.6-0.9,0.6-1.5,1.2c0,0.3,0,0.6,0,0.9c0.6,0,0.6,0,1.2,0
				c0,0.3,0,0.3,0,0.6c-1.2,0-1.8,0-3,0c0-0.6,0-0.9,0-1.5c0-0.3,0-0.6,0-0.6c0-0.3,0-0.3,0.3-0.6c0-0.3,0.3-0.3,0.3-0.3h0.3
				c0.3,0,0.3,0.3,0.6,0.3c0,0.3,0.3,0.3,0.3,0.6C84.2,37.5,84.5,37.2,85.1,36.7z M82.8,37.5L82.8,37.5c-0.3,0-0.3,0-0.3,0.3v0.3
				v0.3c0,0.3,0,0.6,0,0.9c0.6,0,0.6,0,1.2,0c0-0.3,0-0.3,0-0.6s0-0.3,0-0.6v-0.3C83.4,37.8,83.4,37.8,82.8,37.5
				C83.1,37.8,83.1,37.5,82.8,37.5z"/>
			<path class="st3" d="M85.1,32.8c0,0,0.3,0,0.3,0.3c0,0,0,0.3,0.3,0.3c0,0.3,0,0.3,0,0.6s0,0.6,0,0.6c0,0.3-0.3,0.6-0.3,0.9
				c0,0.3-0.3,0.6-0.3,0.6c-0.3,0-0.3,0-0.6,0l0,0c0.3-0.3,0.3-0.3,0.3-0.6c0-0.3,0.3-0.6,0.3-0.9c0-0.3,0-0.6,0-0.9s0-0.3-0.3-0.3
				h-0.3l-0.3,0.3c0,0,0,0.3-0.3,0.6c0,0.3,0,0.3-0.3,0.6c0,0.3-0.3,0.6-0.6,0.9c-0.3,0.3-0.3,0.3-0.6,0.3c-0.3,0-0.3-0.3-0.6-0.6
				c-0.3-0.3,0-0.9,0-1.5c0-0.3,0.3-0.6,0.3-0.9c0-0.3,0.3-0.6,0.3-0.6c0.3,0,0.3,0,0.6,0.3l0,0c0,0-0.3,0.3-0.3,0.6
				c0,0.3-0.3,0.6-0.3,0.9c0,0.3,0,0.6,0,0.9s0,0.3,0.3,0.3h0.3c0,0,0.3-0.3,0.3-0.6c0,0,0-0.3,0.3-0.6c0-0.3,0.3-0.3,0.3-0.6
				c0-0.3,0.3-0.6,0.6-0.6C84.8,32.8,85.1,32.8,85.1,32.8z"/>
			<path class="st3" d="M86.9,30.7c-0.3,0.6-0.3,0.9-0.6,1.5H86c0-0.3,0-0.3,0.3-0.6c-0.9-0.3-1.5-0.6-2.4-0.9c0,0.3,0,0.3-0.3,0.6
				h-0.3c0.3-0.6,0.3-1.2,0.6-1.8c0,0,0.3,0,0.3,0.3c0,0.3,0,0.3-0.3,0.6c0.9,0.3,1.2,0.6,2.1,1.2C86.3,31,86.6,31,86.9,30.7
				C86.6,30.7,86.6,30.7,86.9,30.7z"/>
			<path class="st3" d="M86.6,25.7c-0.3,0.6-0.6,0.9-0.9,1.5c0.9,0.6,1.5,0.9,2.4,1.5c0,0.3-0.3,0.3-0.3,0.6
				c-0.9-0.6-1.5-0.9-2.4-1.5c-0.3,0.6-0.6,0.9-0.6,1.5c0,0-0.3,0-0.3-0.3C84.8,27.4,85.4,26.9,86.6,25.7
				C86.3,25.4,86.3,25.4,86.6,25.7z"/>
			<path class="st3" d="M90.8,23.9c-0.3,0.3-0.3,0.6-0.3,0.6c-0.3,0-0.6,0-0.9-0.3C89,24.8,89,25.1,88.4,26c0.3,0.3,0.3,0.6,0.6,0.9
				c0,0.3-0.3,0.3-0.3,0.6c-0.6-1.5-0.9-1.8-1.5-3.3c0-0.3,0-0.6,0.3-0.6C89,23.9,89.6,23.6,90.8,23.9z M89,24.2
				c-0.6,0-0.9,0-1.5-0.3c0.3,0.6,0.3,0.9,0.6,1.5C88.7,25.1,88.7,24.8,89,24.2z"/>
			<path class="st3" d="M93.8,20.9c-0.3,0.3-0.3,0.3-0.6,0.6c-0.6,0-1.2,0-1.8,0.3c-0.3,0.3-0.3,0.3-0.6,0.6
				c0.3,0.3,0.6,0.3,0.9,0.9c-0.3,0.3-0.3,0.3-0.3,0.6c-0.9-0.9-1.2-1.2-2.1-2.1c0.3-0.3,0.6-0.6,0.9-0.9s0.3-0.3,0.6-0.6
				c0.3,0,0.3-0.3,0.6-0.3s0.3,0,0.6,0c0,0,0.3,0,0.3,0.3c0,0,0.3,0.3,0,0.6c0,0.3-0.3,0.3-0.3,0.6C92.6,20.9,92.9,20.9,93.8,20.9z
				 M91.4,20.3L91.4,20.3c-0.3,0-0.3,0-0.6,0c0,0-0.3,0-0.3,0.3l-0.3,0.3c0,0,0,0.3-0.3,0.3c0.3,0.3,0.3,0.6,0.6,0.9
				c0.3-0.3,0.3-0.3,0.3-0.6l0.3-0.3l0.3-0.3C91.7,20.6,91.7,20.6,91.4,20.3C91.7,20.6,91.7,20.3,91.4,20.3z"/>
			<path class="st3" d="M95.5,19.4c-0.6,0.3-0.9,0.6-1.5,1.2c0,0,0-0.3-0.3-0.3c0.3-0.3,0.3-0.3,0.6-0.3c-0.6-0.9-0.6-0.9-1.2-1.5
				c-0.3,0-0.3,0-0.6,0.3c0,0,0,0-0.3-0.3c0.6-0.6,0.9-0.6,1.8-1.2c0,0,0,0.3,0.3,0.3c-0.3,0-0.3,0.3-0.6,0.3
				c0.6,0.9,0.6,0.9,1.2,1.5C94.9,19.4,95.2,19.4,95.5,19.4L95.5,19.4z"/>
			<path class="st3" d="M98.8,15.3c0.3,0.3,0.3,0.3,0.6,0.3c0.3,0,0.3,0.3,0.3,0.3s0,0.3,0,0.6c0,0.3-0.3,0.3-0.3,0.6
				s-0.3,0.3-0.6,0.6c-0.3,0.3-0.6,0.3-0.9,0.6c-0.3,0-0.6,0.3-0.9,0.3c-0.3,0-0.6,0-0.6,0c-0.3,0-0.3,0-0.6,0s-0.3-0.3-0.3-0.3
				c0-0.3,0-0.3,0-0.6c0-0.3,0-0.3,0.3-0.6c0-0.3,0.3-0.3,0.6-0.6c0.3-0.3,0.6-0.3,0.9-0.6c0-0.3,0.3-0.3,0.6-0.6
				C98.2,15.3,98.5,15.3,98.8,15.3z M99.1,16.2c0-0.3-0.3-0.3-0.6-0.3c-0.3,0-0.9,0-1.2,0.3c-0.6,0.3-0.9,0.6-0.9,0.9
				c0,0.3-0.3,0.6,0,0.9c0,0.3,0.3,0.3,0.6,0.3c0.3,0,0.6,0,1.2-0.3c0.3-0.3,0.6-0.6,0.9-0.6C99.1,16.8,99.1,16.5,99.1,16.2z"/>
		</g>
	</g>
</g>
<g id="Capa_2" class="st4">
	
		<image style="display:inline;overflow:visible;opacity:0.58;enable-background:new    ;" width="502" height="540" xlink:href="../../../../../Users/JOHN/Pictures/Screenshot_20171117-112810.png"  transform="matrix(6.157408e-02 0 0 6.157408e-02 70.5391 27.9333)">
	</image>
	
		<image style="display:inline;overflow:visible;enable-background:new    ;" width="502" height="540" xlink:href="../../../../../Users/JOHN/Pictures/Screenshot_20171117-112810.png"  transform="matrix(4.704515e-02 0 0 4.704515e-02 50.9993 16.5366)">
	</image>
</g>
<g id="Capa_1_1_">
	<path class="st1" d="M23.9,27.7c0,0-7.4-4.2-14,0.9s-4.8,18.4,2.1,20.8c6.8,2.4,12.2-0.6,12.2-0.6v-2.4c0,0-15.1,5.3-14.9-8.3
		c0.3-13.4,13.4-8.6,14.9-6.8v-3.6H23.9z"/>
	<rect x="28.1" y="27.4" class="st1" width="3.6" height="23.2"/>
	<path class="st1" d="M38.2,27.4h11.6c0,0-1.2,4.5-1.8,4.5s-2.4-1.8-4.2-2.1c-1.5,0-2.4,0.3-2.4,0.3v6.5h7.7c0,0-1.8,4.2-2.4,4.2
		c-0.3,0-2.4-1.2-3.3-1.2c-0.9,0-2.1,0.3-2.1,0.3v7.1c0,0,0.3,0.6,1.5,0.3c1.5,0,4.8-0.9,5.6-1.2c0.6-0.3,1.8-1.2,2.1-0.9
		c0.3,0.3-1.5,4.8-1.5,4.8H37.9V27.4H38.2z"/>
	<polygon class="st1" points="53.1,27.4 58.1,27.4 71.5,45 71.5,27.4 74.4,27.4 74.4,48.2 75.3,50.3 71.2,50.3 58.7,34.6 58.7,50.3 
		55.7,50.3 55.7,30.4 	"/>
</g>
</svg>
