<?xml version="1.0" encoding="utf-8"?>
<!-- Generator: Adobe Illustrator 21.1.0, SVG Export Plug-In . SVG Version: 6.00 Build 0)  -->
<svg version="1.1" id="Capa_1" xmlns="http://www.w3.org/2000/svg" xmlns:xlink="http://www.w3.org/1999/xlink" x="0px" y="0px"
	 viewBox="0 0 1417 1417" style="enable-background:new 0 0 1417 1417;" xml:space="preserve">
<style type="text/css">
	.st0{fill:#FFFFFF;}
</style>
<title>Iconos acercar</title>
<path class="st0" d="M1000.7,497.6c-56.1-194.6-259.5-307-454.2-250.8S239.6,506.3,295.7,701s259.5,307,454.1,250.8
	S1056.8,692.3,1000.7,497.6z M735.5,902c-167.2,48.2-341.8-48.2-390-215.4s48.2-341.8,215.4-390s341.8,48.2,390,215.4
	S902.7,853.8,735.5,902z"/>
<path class="st0" d="M930.9,853.4c-6.7,7.8-13.7,15.2-21.2,22.3l179.9,227.3c2.6,3.3,2,8.1-1.2,10.7l-30.3,24
	c-3.3,2.6-8.1,2-10.7-1.2l-179.6-227c-9.6,6.5-19.6,12.4-29.9,17.7l190.4,240.6c8.7,10.9,24.5,12.7,35.4,4.1l53.6-42.4
	c10.9-8.7,12.7-24.5,4.1-35.4L930.9,853.4z"/>
<path class="st0" d="M473.2,599.3L473.2,599.3c0-13.3,10.7-24,24-24h302c13.3,0,24,10.7,24,24v0c0,13.3-10.7,24-24,24h-302
	C483.9,623.3,473.2,612.6,473.2,599.3z"/>
<path class="st0" d="M648.2,424.3L648.2,424.3c13.3,0,24,10.7,24,24v302c0,13.3-10.7,24-24,24h0c-13.3,0-24-10.7-24-24v-302
	C624.2,435.1,634.9,424.3,648.2,424.3z"/>
</svg>
