<?xml version="1.0" encoding="utf-8"?>
<!-- Generator: Adobe Illustrator 21.0.0, SVG Export Plug-In . SVG Version: 6.00 Build 0)  -->
<svg version="1.1" id="Capa_1" xmlns="http://www.w3.org/2000/svg" xmlns:xlink="http://www.w3.org/1999/xlink" x="0px" y="0px"
	 viewBox="0 0 1417 1417" style="enable-background:new 0 0 1417 1417;" xml:space="preserve">
<style type="text/css">
	.st0{fill:#FFFFFF;}
</style>
<path class="st0" d="M1114.9,267.5H302.1c-3.4,0-6.1,3-5.7,6.4l105.2,870.5c0.3,2.9,2.8,5.1,5.7,5.1H1011c2.9,0,5.3-2.2,5.7-5.1
	l103.9-870.5C1121,270.5,1118.4,267.5,1114.9,267.5z M500.7,1026.7c-13.9,0-25.5-9.9-27.1-23.1L399.3,392
	c-1.9-15.5,10.8-29.2,27.1-29.2h56.8l28.3,664H500.7z M659.9,1026.7h-51.4l-28.3-664h79.7V1026.7z M811.7,1026.7H757v-664h83
	L811.7,1026.7z M1017.7,391.9l-73.4,611.5c-1.6,13.3-13.3,23.3-27.1,23.3h-8.3l28.3-664h53.4
	C1006.9,362.8,1019.6,376.4,1017.7,391.9z"/>
</svg>
