<?xml version="1.0" encoding="utf-8"?>
<!-- Generator: Adobe Illustrator 21.1.0, SVG Export Plug-In . SVG Version: 6.00 Build 0)  -->
<svg version="1.1" id="Capa_1" xmlns="http://www.w3.org/2000/svg" xmlns:xlink="http://www.w3.org/1999/xlink" x="0px" y="0px"
	 viewBox="0 0 127 127" style="enable-background:new 0 0 127 127;" xml:space="preserve">
<style type="text/css">
	.st0{fill:#FFFFFF;}
</style>
<path class="st0" d="M60.3,109.2c-1.3-0.1-2.5-0.3-3.8-0.4c-4.4-0.5-8.7-1.5-12.7-3.4c-2.2-1-4.1-2.3-5.8-4C36,99.3,35,96.9,35,94
	c0-4.7,0.7-9.3,2.2-13.8c2.2-6.4,5.6-12,10.9-16.4c4.7-3.9,10.1-6.3,16.4-6c2.9,0.1,5.7,0.9,8.4,2.1c3.4,1.6,6.3,3.8,8.9,6.5
	c3.4,3.6,5.9,7.8,7.6,12.4c1.9,4.9,2.7,10,2.7,15.2c0,3.7-1.8,6.6-4.7,8.8c-3.6,2.8-7.8,4.3-12.3,5.1c-2.5,0.5-5,0.7-7.6,1.1
	c-0.3,0-0.5,0.1-0.8,0.1L60.3,109.2z"/>
<path class="st0" d="M65.2,17.8c0.8,0.2,1.6,0.4,2.4,0.6c4.6,1.2,8.1,3.9,10.5,7.9c3.2,5.4,3.4,10.9,0.5,16.5
	c-3.2,6.1-9.7,9.9-16.8,9.2C56.9,51.4,53,49,50,45.2c-3.1-4-4.2-8.6-3.2-13.5c0.5-2.8,1.8-5.2,3.6-7.4c2.1-2.5,4.7-4.4,7.8-5.5
	c1.2-0.4,2.5-0.7,3.8-1L65.2,17.8z"/>
</svg>
