<svg id="Capa_1" data-name="Capa 1" xmlns="http://www.w3.org/2000/svg" viewBox="0 0 1417 1417"><defs><style>.cls-1{fill:none;stroke:#fff;stroke-miterlimit:10;stroke-width:40px;}.cls-2{fill:#fff;}</style></defs><title>Iconos Usuario</title><rect class="cls-1" x="31.16" y="31.16" width="1354.67" height="1354.67" rx="300.19" ry="300.19"/><path class="cls-2" d="M672.77,1215.58q-20.83-2.44-41.66-4.88c-48.8-5.63-96.2-16.61-140.95-37.42-23.87-11.1-45.7-25.2-64.18-44.3-22.25-23-34-50.09-34-82.22,0-52.25,7.9-103.32,24.84-152.69,24.34-70.94,62.4-133.29,120.51-181.79,52.43-43.76,112-69.42,181.68-66.74,32.51,1.25,63.09,10.11,92.68,23.53,38,17.22,70.28,42,98.49,72.2,37.46,40.09,64.88,86.46,84.32,137.76,20.62,54.4,30.28,110.73,30.47,168.66.14,41.53-20.26,72.91-52.15,97.56-40.23,31.1-87,47.32-136.1,56.85-27.74,5.38-56,8-84.05,11.9-2.9.4-5.76,1-8.64,1.57Z"/><path class="cls-2" d="M727.85,201.42c8.83,2.17,17.71,4.15,26.48,6.54,50.46,13.79,89.39,43.24,116.28,87.9,35.91,59.67,37.71,121.42,5.28,182.59C840.17,545.85,768.16,588.64,690,580.39c-54.62-5.76-98.37-32.23-131.75-75.3-34.44-44.43-46.62-94.91-35.89-150.15,5.95-30.66,19.95-57.94,39.89-82.08,23.2-28.08,51.82-48.69,86.15-60.71,13.65-4.78,28.11-7.23,42.21-10.74Z"/></svg>