<?xml version="1.0" encoding="utf-8"?>
<!-- Generator: Adobe Illustrator 21.1.0, SVG Export Plug-In . SVG Version: 6.00 Build 0)  -->
<svg version="1.1" id="Capa_1" xmlns="http://www.w3.org/2000/svg" xmlns:xlink="http://www.w3.org/1999/xlink" x="0px" y="0px"
	 viewBox="0 0 90 90" style="enable-background:new 0 0 90 90;" xml:space="preserve">
<style type="text/css">
	.st0{fill:#FFFFFF;}
</style>
<path class="st0" d="M45.6,17.3c-14.9,0-27.1,12.1-27.1,26.9c0,5.9,1.9,11.3,5.2,15.8l-3.4,10l10.4-3.3C35,69.4,40.1,71,45.6,71
	C60.5,71,72.7,59,72.7,44.2C72.7,29.3,60.5,17.3,45.6,17.3z M61.4,55.3c-0.7,1.8-3.9,3.6-5.3,3.7s-1.5,1.2-9.5-2
	c-8-3.1-13.1-11.3-13.5-11.8c-0.4-0.5-3.2-4.3-3.2-8.1s2-5.8,2.8-6.5c0.7-0.8,1.6-1,2.1-1c0.5,0,1,0.1,1.5,0.1
	c0.5,0,1.1-0.3,1.8,1.3c0.7,1.6,2.2,5.4,2.4,5.8c0.2,0.4,0.3,0.9,0.1,1.4c-0.3,0.5-0.4,0.8-0.8,1.3c-0.4,0.5-0.8,1-1.2,1.4
	c-0.4,0.4-0.8,0.8-0.3,1.6c0.5,0.8,2.1,3.3,4.4,5.4c3,2.7,5.6,3.5,6.4,3.9c0.8,0.4,1.3,0.3,1.7-0.2c0.5-0.5,2-2.3,2.5-3.1
	c0.5-0.8,1.1-0.7,1.8-0.4c0.7,0.3,4.6,2.2,5.4,2.5c0.8,0.4,1.3,0.6,1.5,0.9C62.1,51.8,62.1,53.4,61.4,55.3z"/>
<path class="st0" d="M74.4,0H15.6C7,0,0,7,0,15.6v58.8C0,83,7,90,15.6,90h58.8C83,90,90,83,90,74.4V15.6C90,7,83,0,74.4,0z
	 M45.6,76.1c-5.7,0-11-1.4-15.6-4l-17.8,5.7L18,60.7c-2.9-4.8-4.6-10.5-4.6-16.5c0-17.7,14.4-32,32.2-32c17.8,0,32.2,14.3,32.2,32
	C77.8,61.8,63.4,76.1,45.6,76.1z"/>
</svg>
