<?xml version="1.0" encoding="utf-8"?>
<!-- Generator: Adobe Illustrator 21.0.0, SVG Export Plug-In . SVG Version: 6.00 Build 0)  -->
<svg version="1.1" id="Capa_1" xmlns="http://www.w3.org/2000/svg" xmlns:xlink="http://www.w3.org/1999/xlink" x="0px" y="0px"
	 viewBox="0 0 90 90" style="enable-background:new 0 0 90 90;" xml:space="preserve">
<style type="text/css">
	.st0{fill:#FFFFFF;}
	.st1{fill:#3CDF39;}
	.st2{display:none;fill:#FFFFFF;}
</style>
<path class="st0" d="M90,43.9C90,68,70.2,87.7,45.8,87.7c-7.8,0-15.1-1.9-21.4-5.5L0,90l8-23.5C4,60,1.6,52.1,1.6,43.9
	C1.6,19.6,21.4,0,45.8,0C70.2,0,90,19.6,90,43.9z"/>
<path class="st1" d="M45.8,7C25.4,7,8.6,23.6,8.6,43.9c0,8.1,2.6,15.5,7.1,21.7l-4.7,13.7l14.3-4.5c5.9,3.7,12.9,5.9,20.4,5.9
	C66.3,80.7,83,64.2,83,43.9C83,23.5,66.3,7,45.8,7z M67.5,59.1c-1,2.5-5.4,4.9-7.3,5.1c-1.9,0.1-2.1,1.6-13-2.7
	c-11-4.3-18-15.5-18.5-16.2c-0.5-0.7-4.4-5.9-4.4-11.1s2.7-8,3.8-8.9c1-1.1,2.2-1.4,2.9-1.4s1.4,0.1,2.1,0.1c0.7,0,1.5-0.4,2.5,1.8
	c1,2.2,3,7.4,3.3,8s0.4,1.2,0.1,1.9c-0.4,0.7-0.5,1.1-1.1,1.8c-0.5,0.7-1.1,1.4-1.6,1.9c-0.5,0.5-1.1,1.1-0.4,2.2s2.9,4.5,6,7.4
	c4.1,3.7,7.7,4.8,8.8,5.4c1.1,0.5,1.8,0.4,2.3-0.3c0.7-0.7,2.7-3.2,3.4-4.3c0.7-1.1,1.5-1,2.5-0.5c1,0.4,6.3,3,7.4,3.4
	c1.1,0.5,1.8,0.8,2.1,1.2C68.5,54.3,68.5,56.5,67.5,59.1z"/>
<path class="st2" d="M74.4,0H15.6C7,0,0,7,0,15.6v58.8C0,83,7,90,15.6,90h58.8C83,90,90,83,90,74.4V15.6C90,7,83,0,74.4,0z
	 M45.6,76.1c-5.7,0-11-1.4-15.6-4l-17.8,5.7L18,60.7c-2.9-4.8-4.6-10.5-4.6-16.5c0-17.7,14.4-32,32.2-32c17.8,0,32.2,14.3,32.2,32
	C77.8,61.8,63.4,76.1,45.6,76.1z"/>
</svg>
